<?xml version="1.0" standalone="no"?>
<!DOCTYPE svg PUBLIC "-//W3C//DTD SVG 20010904//EN"
 "http://www.w3.org/TR/2001/REC-SVG-20010904/DTD/svg10.dtd">
<svg version="1.0" xmlns="http://www.w3.org/2000/svg"
 width="1280.000000pt" height="989.000000pt" viewBox="0 0 1280.000000 989.000000"
 preserveAspectRatio="xMidYMid meet">
<metadata>
Created by potrace 1.15, written by Peter Selinger 2001-2017
</metadata>
<defs>
    <linearGradient id="grad1" x1="0%" y1="0%" x2="100%" y2="0%">
      <stop offset="0%" style="stop-color:rgb(255,255,0);stop-opacity:1" />
      <stop offset="100%" style="stop-color:rgb(255,0,0);stop-opacity:1" />
    </linearGradient>
  </defs>
<g transform="translate(0.000000,989.000000) scale(0.100000,-0.100000)"
fill="url(#grad1)" stroke="none">

<path d="M5770 9626 c0 -2 25 -23 56 -46 198 -149 320 -308 489 -635 107 -208
209 -359 319 -470 255 -258 551 -390 892 -397 l101 -2 -101 -50 c-85 -42 -115
-64 -192 -141 -77 -76 -99 -105 -138 -185 -29 -59 -51 -121 -58 -162 l-12 -68
-1626 -2 -1625 -3 -65 -23 c-136 -50 -255 -153 -315 -276 -56 -115 -55 -84
-55 -1086 0 -842 -2 -922 -16 -895 -8 17 -31 46 -50 66 -32 33 -35 41 -43 125
-7 81 -30 154 -49 154 -4 0 -8 -43 -8 -95 -1 -53 -4 -99 -8 -102 -26 -26 -102
78 -144 196 -19 55 -22 59 -18 26 3 -22 22 -74 43 -115 47 -93 50 -101 23 -70
-32 36 -77 129 -96 198 -39 141 35 261 154 249 98 -10 145 -123 77 -187 -35
-32 -103 -38 -135 -11 l-25 20 26 1 c34 0 49 17 49 56 0 33 -11 47 -47 58 -17
5 -29 0 -49 -19 -22 -22 -25 -32 -20 -63 13 -80 103 -123 181 -86 93 44 100
156 15 228 -43 36 -120 37 -172 1 -104 -70 -114 -200 -28 -371 22 -43 40 -80
40 -81 0 -2 -14 -3 -30 -3 -40 0 -44 -15 -21 -81 l19 -55 -61 -11 c-33 -7 -81
-25 -106 -40 l-46 -29 0 100 c0 78 -4 109 -18 134 -10 17 -21 32 -25 32 -4 0
-49 -39 -100 -87 -105 -100 -102 -101 -82 42 20 145 13 132 76 127 l55 -5 48
50 c33 35 51 63 59 96 14 55 16 134 3 142 -12 7 -152 -57 -170 -78 -21 -26
-26 -20 -23 26 1 23 -1 82 -5 132 l-8 90 28 25 c55 49 44 152 -23 224 l-39 41
-18 -44 -19 -44 -55 99 -55 100 24 18 c21 16 24 25 19 63 -3 26 -13 54 -24 65
-20 19 -20 19 -45 -22 l-24 -41 -61 128 c-72 151 -108 250 -128 353 l-14 75 3
-60 c4 -68 59 -242 105 -334 17 -33 31 -63 31 -66 0 -2 -20 -2 -45 2 -52 7
-57 -3 -25 -54 20 -34 55 -49 93 -40 19 5 27 -3 58 -61 l37 -67 -54 3 c-41 3
-54 0 -54 -10 0 -44 83 -98 120 -78 27 15 27 15 55 -40 19 -38 24 -59 19 -85
-6 -34 -6 -34 -31 -18 -13 9 -30 31 -38 50 -29 68 -147 82 -204 25 -20 -21
-91 -62 -106 -62 -1 0 -10 27 -20 60 -10 33 -21 60 -25 60 -3 0 -21 -15 -39
-34 -27 -28 -35 -45 -39 -86 -4 -42 -1 -55 17 -74 21 -22 21 -24 5 -62 -20
-48 -15 -164 9 -211 l17 -31 -65 -7 c-36 -4 -65 -9 -65 -12 0 -27 64 -100 107
-122 38 -19 101 -14 127 12 21 21 26 22 57 11 92 -33 225 -1 292 70 21 23 47
57 57 76 l19 35 1 -58 c0 -54 -24 -240 -36 -280 -5 -16 -9 -14 -30 16 -34 51
-82 76 -176 92 -114 20 -111 21 -107 -22 l4 -38 -47 3 c-133 10 -258 -95 -258
-217 0 -39 -2 -42 -17 -30 -26 22 -53 90 -53 134 0 37 7 73 24 135 l7 25 -15
-25 c-21 -38 -35 -130 -27 -177 9 -48 31 -86 73 -125 l29 -27 -25 -7 c-14 -3
-26 -12 -26 -20 0 -20 41 -44 77 -44 21 0 33 -5 33 -13 0 -9 -10 -12 -30 -9
-53 8 -92 -52 -58 -86 19 -19 66 -14 88 8 11 11 22 20 24 20 6 0 24 -52 30
-89 5 -29 4 -32 -9 -21 -17 14 -85 31 -96 24 -13 -7 12 -63 34 -79 12 -8 34
-15 48 -15 27 0 27 0 28 -77 0 -43 5 -94 11 -113 15 -52 13 -73 -6 -66 -51 20
-64 19 -64 -5 1 -32 22 -69 49 -83 l21 -12 -26 -34 c-40 -54 -81 -140 -100
-211 -23 -86 -23 -235 0 -314 60 -203 219 -367 410 -424 l78 -23 -6 -32 c-12
-60 -18 -351 -8 -411 11 -70 4 -104 -12 -54 -14 44 -55 60 -94 38 -22 -12 -27
-22 -27 -53 0 -31 6 -43 27 -59 23 -17 32 -19 52 -9 24 11 24 9 -11 -46 -213
-336 -419 -460 -748 -450 -101 2 -120 1 -120 -12 0 -11 14 -16 50 -18 44 -3
218 10 300 23 17 2 5 -2 -25 -10 -30 -8 -145 -24 -255 -35 -295 -30 -395 -52
-530 -114 -69 -32 -189 -106 -171 -106 5 0 49 16 99 36 150 60 238 74 517 78
259 5 346 15 476 60 207 70 375 199 492 378 54 84 62 83 62 0 0 -70 26 -167
63 -236 64 -121 205 -231 322 -251 22 -4 67 -25 100 -46 33 -21 107 -60 165
-88 58 -27 114 -59 125 -71 16 -17 28 -20 79 -18 55 2 214 -17 224 -26 2 -3
16 -40 31 -83 75 -215 245 -369 472 -428 89 -23 231 -22 324 2 19 5 19 4 -2
-11 -64 -47 -169 -225 -199 -337 -22 -84 -23 -234 -1 -318 95 -360 533 -630
944 -582 234 28 442 137 626 330 195 204 309 459 337 749 38 403 -153 825
-512 1129 -167 142 -421 293 -645 384 -46 18 -83 36 -83 40 0 9 153 -53 295
-120 175 -83 308 -166 765 -476 682 -464 930 -620 1212 -761 356 -178 632
-258 888 -256 209 1 354 56 481 182 119 117 164 228 157 379 -9 177 -112 311
-280 362 -185 56 -387 -30 -466 -199 -36 -77 -38 -195 -4 -259 35 -67 78 -110
144 -143 138 -68 299 -18 361 112 17 36 24 133 10 141 -5 3 -8 -23 -8 -58 0
-55 -4 -69 -31 -106 -46 -64 -124 -104 -199 -104 -104 1 -207 65 -258 160 -33
61 -31 172 4 246 105 224 414 272 593 93 130 -129 142 -341 31 -511 -177 -269
-542 -327 -1021 -163 -103 35 -571 257 -562 266 2 1 42 -11 88 -27 117 -42
207 -59 303 -59 79 0 131 13 97 24 -8 2 -47 7 -86 10 -205 17 -375 109 -1157
628 -263 174 -534 349 -603 388 -172 98 -413 216 -572 281 l-134 54 2109 5
2108 5 58 24 c129 51 246 159 302 278 56 118 55 81 55 1336 l0 1157 34 -37
c50 -57 76 -115 76 -173 0 -27 4 -50 9 -50 10 0 64 102 81 154 19 60 15 156
-9 211 -13 29 -54 82 -106 134 -84 86 -85 88 -85 138 l0 50 44 5 c42 5 106 40
106 57 0 5 -18 11 -39 15 -25 4 -53 18 -75 40 l-36 33 0 180 0 180 29 40 c41
57 75 80 148 103 48 15 91 20 162 19 99 -1 188 -16 106 -18 -55 -1 -130 -40
-130 -66 0 -17 6 -20 40 -17 22 2 81 4 130 5 80 1 96 -1 140 -25 68 -35 136
-97 175 -158 82 -128 32 -323 -102 -400 -69 -39 -113 -45 -189 -25 -122 31
-203 108 -229 215 -20 83 -40 56 -40 -55 0 -200 238 -360 446 -300 204 58 342
279 304 488 -40 225 -243 421 -490 473 -145 31 -327 5 -449 -62 -44 -24 -64
-27 -37 -5 7 6 38 25 67 41 65 36 45 40 -28 5 l-53 -24 0 38 c0 239 -181 464
-424 526 -32 8 -61 17 -63 19 -3 2 -11 30 -20 63 -66 256 -262 477 -526 597
-92 42 -257 91 -372 111 -71 13 -352 32 -492 35 -20 0 -20 1 8 29 39 40 39 82
0 122 -40 39 -82 39 -122 0 -39 -39 -39 -82 0 -122 l29 -28 -62 5 c-419 38
-630 110 -818 283 -104 95 -236 294 -273 409 -18 55 -38 73 -58 53 -14 -14 0
-42 106 -214 116 -189 203 -285 344 -377 181 -119 400 -174 798 -202 l180 -13
-125 -6 c-311 -16 -547 27 -740 134 -226 125 -333 235 -562 577 -265 396 -387
526 -614 655 -73 42 -94 51 -94 41z m2588 -1536 c207 -22 378 -91 512 -208
l35 -31 -63 25 c-101 40 -186 55 -357 61 -133 4 -186 2 -310 -16 -237 -35
-346 -38 -429 -13 -50 15 -74 18 -88 11 -22 -12 -23 -32 -4 -49 19 -15 338 -5
508 16 447 55 774 -22 882 -208 l20 -33 -47 41 c-123 108 -326 161 -461 120
-142 -43 -221 -182 -172 -301 l15 -35 -130 0 -130 0 -30 35 c-17 19 -46 44
-65 56 -35 21 -35 22 -13 33 29 14 34 30 14 50 -20 20 -29 20 -49 0 -12 -12
-13 -20 -6 -35 10 -19 9 -18 -41 1 -152 60 -320 21 -401 -95 l-32 -45 -99 0
-99 0 7 57 c17 136 79 265 175 363 48 49 69 62 160 97 238 93 470 127 698 103z
m431 -327 c82 -22 167 -69 224 -121 48 -45 117 -140 117 -162 0 -7 -111 -10
-349 -9 l-349 0 -17 39 c-37 81 3 184 90 235 77 45 166 51 284 18z m-1526
-231 c-3 -34 -10 -62 -14 -62 -12 0 -11 19 2 80 14 67 19 60 12 -18z m652 19
c33 -16 74 -41 90 -55 l30 -25 -243 -1 c-184 0 -243 3 -240 12 8 23 78 71 130
90 71 25 152 18 233 -21z m-775 -298 c42 -170 208 -343 389 -407 87 -30 251
-34 338 -8 115 36 196 95 264 195 43 62 85 88 197 126 152 51 322 3 361 -102
17 -45 13 -91 -12 -128 -28 -41 -60 -59 -110 -59 -111 0 -168 132 -84 194 38
28 94 27 118 -3 11 -13 19 -19 19 -13 0 18 -51 52 -77 52 -32 0 -78 -25 -97
-52 -20 -29 -20 -90 0 -129 16 -33 81 -68 123 -69 48 0 108 38 130 84 12 23
21 51 21 62 0 38 -20 90 -47 118 -14 16 -22 27 -17 25 5 -3 70 -34 144 -71
139 -68 222 -98 272 -98 66 0 118 58 104 116 -18 71 -106 99 -159 50 -26 -24
-45 -71 -33 -83 3 -4 6 2 6 13 0 53 61 92 117 73 91 -30 62 -149 -37 -149 -54
0 -85 12 -294 113 l-190 92 -120 0 c-119 0 -122 -1 -200 -38 -43 -20 -81 -35
-83 -33 -14 13 25 47 89 77 68 32 80 34 170 34 72 -1 93 2 80 10 -9 5 -57 10
-107 10 -75 -1 -101 -5 -153 -27 l-63 -27 3 47 3 47 477 0 c262 0 480 -3 484
-7 4 -4 9 -31 12 -60 5 -43 7 -48 13 -28 4 14 7 39 8 57 1 30 2 31 31 23 52
-15 130 -63 165 -102 73 -81 105 -183 105 -341 l0 -77 -65 -86 c-121 -158
-213 -381 -284 -685 -22 -97 -45 -187 -50 -201 -25 -67 -83 -78 -136 -25 -36
36 -60 105 -50 144 4 18 2 24 -7 21 -22 -7 -48 -70 -48 -115 l0 -43 -32 20
c-42 26 -91 25 -148 -1 l-45 -21 53 -13 c34 -8 84 -34 143 -73 126 -86 200
-94 265 -31 46 44 70 107 94 245 35 198 125 501 170 571 13 20 14 23 -21 -75
-58 -167 -72 -413 -41 -752 38 -409 38 -384 4 -476 -16 -45 -46 -106 -65 -137
-21 -32 -32 -59 -27 -62 13 -8 51 4 72 23 22 19 22 10 2 -59 -46 -156 -159
-295 -295 -362 -43 -21 -123 -48 -180 -62 -57 -13 -90 -24 -73 -24 107 -3 317
86 403 171 l55 53 -29 -50 c-39 -70 -115 -178 -258 -368 -186 -246 -261 -379
-293 -516 -35 -148 13 -283 125 -349 60 -35 155 -38 216 -6 46 24 101 98 111
151 19 102 -87 223 -196 223 -43 0 -107 -29 -137 -61 -69 -76 -51 -189 33
-205 46 -9 94 35 94 85 0 44 -31 80 -73 83 -35 3 -30 16 13 40 101 54 233 -24
233 -137 0 -144 -173 -225 -295 -139 -83 58 -113 132 -105 256 9 132 89 288
275 531 174 230 245 328 288 405 127 223 180 452 194 842 l7 205 1 -155 c3
-262 -22 -477 -75 -644 -54 -173 -141 -324 -347 -605 -200 -272 -273 -403
-281 -501 l-4 -55 9 48 c19 106 91 228 305 517 188 254 287 416 325 533 6 21
14 37 16 34 5 -5 -27 -96 -61 -172 -36 -81 -82 -157 -186 -305 -135 -194 -132
-187 -140 -380 -3 -91 -5 -167 -3 -169 6 -7 65 96 74 131 6 20 13 72 16 115 8
108 35 194 92 288 27 44 71 116 97 159 94 153 157 330 197 546 17 93 22 168
25 390 3 151 1 285 -4 298 -5 14 -7 -28 -5 -110 1 -73 -1 -182 -6 -243 -8 -94
-9 -63 -11 209 l-1 319 35 -39 34 -39 -2 -1240 -2 -1240 -23 -58 c-33 -81
-114 -166 -194 -203 l-63 -29 -1922 -3 -1923 -2 0 52 c0 29 -7 66 -15 82 -19
36 -20 31 15 46 66 27 81 101 31 151 -72 72 -193 -9 -148 -99 l14 -30 -39 -6
c-22 -4 -69 -20 -105 -36 -36 -17 -67 -30 -69 -30 -2 0 -4 13 -4 28 0 29 0 30
269 265 36 32 80 65 96 74 41 22 122 43 168 43 42 0 45 5 17 35 l-21 22 55 17
c33 11 87 18 133 17 123 0 205 -37 320 -144 59 -54 63 -57 33 -19 -63 79 -171
149 -273 177 -49 13 -38 14 188 15 437 1 566 31 647 152 38 56 40 146 4 199
-83 122 -266 73 -266 -71 0 -113 119 -181 199 -114 35 29 41 67 14 96 -16 18
-59 24 -79 10 -24 -15 -35 -51 -24 -73 15 -27 7 -34 -22 -19 -40 21 -58 52
-58 101 0 57 26 94 79 110 32 10 45 8 83 -9 117 -51 101 -225 -28 -293 -100
-54 -183 -63 -544 -58 -173 2 -172 3 85 9 158 4 280 12 310 20 56 14 120 44
130 60 4 6 -12 1 -34 -11 -70 -36 -107 -40 -426 -50 -170 -4 -326 -11 -345
-13 l-35 -5 35 9 c19 6 116 14 215 19 99 5 192 14 208 20 15 6 56 33 92 60 35
27 73 52 85 56 27 9 25 25 -3 25 -42 0 -113 -26 -161 -59 -67 -47 -115 -60
-255 -72 -69 -6 -155 -17 -191 -24 -190 -40 -409 -153 -622 -323 -85 -68 -108
-96 -30 -38 56 42 208 146 172 117 -88 -70 -230 -169 -233 -163 -2 4 -12 48
-22 99 -22 110 -13 157 41 211 19 19 32 37 30 40 -6 5 -98 -12 -128 -23 -13
-5 -22 4 -39 37 -39 78 -124 202 -191 279 -119 136 -322 276 -486 335 -43 15
-87 31 -100 36 -12 4 -25 16 -28 25 -18 56 -69 146 -106 188 -51 58 -140 117
-200 134 -34 10 -47 19 -55 42 -15 38 -70 63 -108 49 -15 -6 -28 -10 -31 -10
-2 0 -3 485 -2 1078 l3 1077 27 57 c53 113 161 198 275 218 26 4 760 8 1629 9
l1582 1 12 -47z m165 -9 c40 -81 119 -157 207 -199 83 -40 150 -54 252 -56
l71 -1 -50 -9 c-180 -32 -414 92 -504 268 -23 47 -25 53 -12 53 5 0 21 -25 36
-56z m790 19 c-9 -51 -43 -128 -64 -147 -31 -28 -163 -67 -246 -73 -133 -9
-265 36 -350 122 -37 36 -85 110 -85 130 0 3 169 5 376 5 l376 0 -7 -37z
m1232 -1130 c-3 -10 -5 -2 -5 17 0 19 2 27 5 18 2 -10 2 -26 0 -35z m-6934
-47 c42 -31 74 -37 117 -22 30 11 39 10 62 -6 39 -27 95 -115 107 -170 9 -40
8 -56 -9 -101 -11 -29 -26 -61 -33 -70 -10 -15 -12 -12 -14 23 -4 58 -49 141
-77 140 -18 -1 -66 -115 -66 -156 0 -20 9 -51 20 -69 l20 -33 -31 -11 c-74
-26 -185 -5 -218 40 -12 16 -36 36 -54 45 -52 27 -73 64 -37 64 29 0 68 45 76
86 8 41 -1 94 -20 120 -14 18 -16 17 -55 -20 l-41 -40 10 35 c6 18 10 36 10
38 0 14 112 109 140 118 51 16 58 15 93 -11z m6945 -396 l-1 -65 -7 75 c-4 41
-10 140 -13 220 l-6 145 14 -155 c7 -85 13 -184 13 -220z m49 167 c-2 -23 -3
-1 -3 48 0 50 1 68 3 42 2 -26 2 -67 0 -90z m-40 -289 c-2 -13 -4 -5 -4 17 -1
22 1 32 4 23 2 -10 2 -28 0 -40z m-7019 -104 c18 -4 34 -15 40 -29 31 -67 131
-144 189 -145 38 0 71 -71 75 -161 2 -59 0 -75 -9 -72 -19 7 -16 -12 4 -28 13
-12 43 -68 43 -82 0 -2 -21 6 -47 19 -40 21 -61 24 -155 24 -123 0 -124 -1
-87 -76 26 -54 87 -117 138 -144 59 -30 140 -28 179 5 17 14 32 25 35 25 3 0
8 -15 12 -32 4 -18 9 -41 12 -51 4 -17 0 -18 -55 -11 -68 7 -182 -9 -257 -37
-27 -11 -50 -19 -50 -19 -1 0 -1 10 -2 23 -3 37 -48 67 -99 67 -41 0 -45 -2
-39 -20 4 -12 2 -20 -5 -20 -6 0 -16 -12 -22 -26 -11 -23 -13 -24 -19 -7 -13
32 -10 73 5 73 34 0 58 77 40 125 -6 14 -9 13 -30 -6 l-24 -22 0 39 c-1 21 -5
58 -9 81 -6 32 -5 43 6 47 7 3 18 16 24 30 8 17 22 25 50 29 21 3 54 15 74 27
124 77 71 280 -73 280 -38 0 -92 -30 -92 -51 0 -5 9 0 20 11 45 45 132 34 172
-23 34 -47 33 -135 -2 -172 -33 -35 -72 -55 -109 -55 -24 0 -34 7 -46 30 -18
36 -28 37 -47 8 -12 -18 -16 -19 -26 -7 -6 8 -26 31 -43 52 -59 71 -48 178 25
246 26 25 115 60 152 61 12 0 35 -3 52 -6z m308 -180 c-7 -25 -8 -25 -20 -8
-12 16 -11 20 3 30 21 16 25 11 17 -22z m6791 -46 c-2 -13 -4 -3 -4 22 0 25 2
35 4 23 2 -13 2 -33 0 -45z m-10 -75 c-3 -10 -5 -4 -5 12 0 17 2 24 5 18 2 -7
2 -21 0 -30z m-6287 -10 c8 -21 16 -41 18 -45 2 -3 -16 -5 -40 -2 l-43 3 49
-10 c32 -6 59 -20 79 -41 37 -36 101 -67 139 -68 38 0 68 -42 68 -94 0 -67 -8
-83 -43 -90 -18 -3 -52 -19 -77 -36 -24 -16 -47 -26 -51 -22 -4 4 -12 25 -19
47 -26 81 -100 181 -118 159 -34 -38 -149 -217 -162 -252 l-16 -43 -41 30
c-36 26 -42 37 -58 100 -15 60 -15 78 -5 123 40 167 139 261 295 277 6 1 17
-16 25 -36z m6277 -55 c-3 -7 -5 -2 -5 12 0 14 2 19 5 13 2 -7 2 -19 0 -25z
m-7291 -43 c9 -23 -15 -45 -47 -45 -24 0 -29 4 -29 23 0 13 3 27 7 30 13 13
64 7 69 -8z m7281 -7 c-3 -8 -6 -5 -6 6 -1 11 2 17 5 13 3 -3 4 -12 1 -19z
m-10 -50 c-3 -8 -6 -5 -6 6 -1 11 2 17 5 13 3 -3 4 -12 1 -19z m-6600 -34
l-14 -38 -7 29 c-6 22 -3 32 10 42 24 18 26 12 11 -33z m-58 4 c22 -59 21 -70
-3 -29 -29 49 -30 51 -16 51 6 0 14 -10 19 -22z m6648 -10 c-3 -8 -6 -5 -6 6
-1 11 2 17 5 13 3 -3 4 -12 1 -19z m-13 -52 c-3 -15 -8 -25 -11 -23 -2 3 -1
17 3 31 3 15 8 25 11 23 2 -3 1 -17 -3 -31z m-5924 -56 c0 -16 -4 -30 -8 -30
-5 0 -7 14 -4 30 2 17 6 30 8 30 2 0 4 -13 4 -30z m268 -67 c4 -38 -6 -41 -49
-16 -46 27 -37 56 16 51 26 -3 30 -7 33 -35z m149 -90 c75 -37 144 -106 182
-182 31 -61 31 -61 9 -56 -50 11 -155 25 -190 25 -34 0 -38 3 -38 25 0 37 -29
115 -59 160 -49 73 -16 83 96 28z m-1509 -53 c26 0 25 -1 -13 -25 -46 -28 -64
-30 -90 -11 -19 14 -19 15 -2 51 l17 36 31 -25 c17 -14 43 -26 57 -26z m1177
9 c54 -15 109 -74 124 -134 38 -150 -114 -279 -256 -220 -74 31 -113 92 -113
178 0 86 47 146 140 180 25 9 63 8 105 -4z m-1273 -72 c15 -12 15 -14 -2 -25
-14 -9 -19 -8 -24 4 -13 35 -4 43 26 21z m510 -168 c133 -34 238 -194 225
-342 -23 -254 -306 -388 -520 -246 -86 57 -138 157 -140 269 -1 91 24 159 84
224 93 102 206 133 351 95z m1186 -514 c238 -56 423 -230 504 -470 20 -60 23
-90 23 -205 0 -148 -16 -217 -76 -331 -53 -99 -82 -126 -141 -134 -122 -17
-261 -85 -366 -180 l-53 -48 -97 5 c-278 14 -518 197 -614 468 -20 57 -23 84
-23 220 0 143 2 160 27 228 81 221 259 384 480 442 90 23 247 26 336 5z m1769
-111 c-3 -3 -12 -4 -19 -1 -8 3 -5 6 6 6 11 1 17 -2 13 -5z m88 -14 c-53 -7
-145 -28 -202 -46 -16 -5 -16 -4 -1 5 27 18 169 50 218 49 42 0 41 -1 -15 -8z
m-226 -54 c-11 -10 -193 -97 -184 -88 12 13 166 91 179 92 5 0 7 -2 5 -4z
m-214 -112 c-26 -20 -55 -36 -55 -30 0 5 63 46 70 46 3 -1 -4 -8 -15 -16z
m-65 -38 c0 -2 -8 -10 -17 -17 -16 -13 -17 -12 -4 4 13 16 21 21 21 13z m-100
-119 c0 -2 -12 -14 -27 -28 l-28 -24 24 28 c23 25 31 32 31 24z m-86 -78 c-16
-17 -38 -35 -49 -41 -11 -5 0 8 25 31 54 48 65 53 24 10z m254 19 c34 -34 -6
-90 -48 -68 -11 6 -20 12 -20 15 0 2 -3 10 -6 18 -12 32 48 61 74 35z m-108
-177 c14 -27 13 -47 -6 -87 l-16 -34 -97 0 -97 0 4 39 c4 37 7 41 60 64 102
44 135 48 152 18z m-2730 -359 c-87 -154 -205 -279 -337 -357 -43 -25 -82 -45
-88 -45 -5 0 19 17 55 37 89 49 236 201 325 335 73 111 100 129 45 30z m2661
-382 c286 -127 590 -458 684 -744 50 -152 62 -347 31 -511 -48 -250 -199 -486
-371 -578 -55 -29 5 -19 70 12 254 120 432 454 436 815 l1 101 15 -70 c20 -96
12 -313 -15 -415 -66 -249 -208 -472 -389 -609 -89 -68 -229 -136 -327 -161
-288 -72 -655 47 -837 273 -155 192 -180 428 -69 653 40 80 123 183 180 224
l28 20 32 -51 c40 -65 50 -57 17 15 l-25 55 71 29 c40 17 102 35 139 40 60 9
70 8 110 -11 31 -16 69 -23 139 -27 92 -5 99 -7 153 -44 72 -49 118 -103 162
-186 19 -36 32 -54 28 -40 -21 82 -142 230 -212 259 -38 16 -41 27 -8 35 40
10 120 91 151 153 27 53 30 67 29 158 0 80 -5 111 -22 154 -64 154 -191 282
-396 399 -48 28 -99 66 -116 87 -27 35 -28 38 -14 60 l16 24 101 -35 c56 -20
149 -57 208 -84z m-674 -56 c81 -39 129 -87 170 -174 23 -47 27 -68 28 -145 0
-77 -4 -98 -27 -147 -37 -80 -105 -149 -181 -184 -54 -25 -74 -29 -152 -29
-82 0 -97 3 -157 33 -108 53 -176 145 -199 267 -28 151 58 318 196 381 115 53
209 52 322 -2z m502 -70 c150 -87 260 -195 319 -313 35 -71 37 -80 37 -175 0
-93 -2 -105 -30 -155 -34 -61 -82 -104 -141 -127 -38 -14 -45 -14 -88 0 -25 9
-78 19 -117 22 -64 6 -72 10 -95 39 -30 39 -30 39 0 78 33 45 66 112 87 177
l17 55 45 3 c53 4 114 -23 146 -64 25 -31 28 -19 5 15 -22 30 -109 71 -154 71
l-35 0 3 97 c4 106 -9 194 -38 261 -11 23 -16 42 -13 42 4 0 27 -12 52 -26z
m-133 -745 c-6 -4 -31 -9 -55 -12 l-44 -5 39 39 38 39 16 -28 c12 -18 14 -29
6 -33z m1151 -21 c-3 -8 -6 -5 -6 6 -1 11 2 17 5 13 3 -3 4 -12 1 -19z m-942
-20 c26 -11 -70 1 -99 12 -14 6 -3 7 29 3 28 -3 59 -10 70 -15z"/>
<path d="M3662 5134 c-27 -19 -29 -64 -4 -87 26 -24 68 -21 86 5 21 30 20 54
-4 78 -24 24 -48 25 -78 4z m55 -40 c7 -20 -17 -37 -34 -23 -15 13 -6 39 13
39 8 0 17 -7 21 -16z"/>
<path d="M5580 3290 c-24 -24 -25 -48 -4 -78 19 -27 64 -29 87 -4 24 26 21 68
-5 86 -30 21 -54 20 -78 -4z m60 -40 c0 -13 -7 -20 -20 -20 -19 0 -27 20 -13
33 13 14 33 6 33 -13z"/>
<path d="M5796 3254 c-19 -18 -20 -28 -6 -55 11 -19 45 -25 66 -11 19 13 23
39 8 61 -18 25 -46 27 -68 5z m44 -29 c0 -8 -4 -15 -9 -15 -13 0 -22 16 -14
24 11 11 23 6 23 -9z"/>
<path d="M3388 4610 c-101 -55 -111 -204 -16 -271 45 -33 132 -37 176 -10 96
61 104 200 15 268 -46 36 -123 41 -175 13z m140 -40 c72 -44 76 -139 10 -195
-28 -24 -39 -27 -82 -22 -68 6 -106 47 -106 113 0 56 12 79 53 104 41 25 83
25 125 0z"/>
<path d="M3435 4539 c-51 -29 -60 -85 -20 -124 30 -30 64 -32 99 -4 66 52 -6
169 -79 128z"/>
<path d="M2565 4357 c-118 -47 -185 -143 -185 -262 0 -108 57 -202 152 -249
71 -35 171 -36 243 -2 203 96 213 378 18 493 -37 21 -61 27 -122 30 -45 1 -89
-2 -106 -10z m178 -71 c75 -31 121 -104 122 -191 0 -145 -136 -246 -272 -201
-86 29 -144 110 -144 201 0 82 41 149 116 188 37 20 135 22 178 3z"/>
<path d="M2588 4204 c-85 -46 -73 -192 19 -230 46 -20 93 -12 133 22 91 77 40
225 -78 224 -26 -1 -59 -7 -74 -16z"/>
<path d="M3643 3775 c-129 -35 -255 -125 -326 -233 -133 -199 -133 -445 -1
-644 54 -80 115 -136 205 -183 88 -46 166 -65 267 -65 164 0 282 50 403 170
114 113 169 243 169 400 0 157 -54 286 -169 401 -83 83 -179 137 -279 158 -72
15 -206 13 -269 -4z m245 -130 c86 -21 136 -48 204 -113 179 -171 179 -454 -1
-626 -220 -209 -567 -145 -697 128 -119 250 17 537 289 611 68 18 128 18 205
0z"/>
<path d="M3685 3461 c-101 -46 -159 -134 -158 -241 0 -74 18 -123 65 -176 76
-86 215 -110 319 -56 62 32 113 94 130 155 14 53 7 153 -15 195 -24 46 -82
101 -130 123 -54 25 -157 25 -211 0z"/>
<path d="M5330 3360 c0 -5 5 -10 10 -10 6 0 10 5 10 10 0 6 -4 10 -10 10 -5 0
-10 -4 -10 -10z"/>
<path d="M4291 2390 c-136 -28 -235 -152 -235 -295 -1 -256 290 -395 492 -236
74 59 107 132 107 236 0 67 -5 88 -27 130 -66 126 -202 192 -337 165z m152
-83 c88 -37 140 -117 140 -212 0 -209 -251 -310 -395 -158 -62 65 -77 177 -34
261 27 54 45 71 101 100 47 25 139 29 188 9z"/>
<path d="M4322 2229 c-73 -15 -125 -104 -102 -175 16 -47 64 -92 106 -100 106
-20 197 80 165 178 -23 71 -96 113 -169 97z"/>
<path d="M6965 8045 c-61 -60 7 -150 84 -111 48 25 55 73 16 111 -13 14 -36
25 -50 25 -14 0 -37 -11 -50 -25z"/>
<path d="M7300 8040 c-11 -11 -20 -29 -20 -40 0 -27 35 -60 63 -60 50 0 76 70
39 103 -25 23 -58 21 -82 -3z"/>
<path d="M2283 7135 c-3 -9 -3 -18 -1 -21 3 -3 8 4 11 16 6 23 -1 27 -10 5z"/>
<path d="M2270 7070 c0 -16 2 -30 4 -30 2 0 6 14 8 30 3 17 1 30 -4 30 -4 0
-8 -13 -8 -30z"/>
<path d="M2260 7005 c0 -8 5 -15 10 -15 6 0 10 7 10 15 0 8 -4 15 -10 15 -5 0
-10 -7 -10 -15z"/>
<path d="M3095 5610 c3 -5 8 -10 11 -10 2 0 4 5 4 10 0 6 -5 10 -11 10 -5 0
-7 -4 -4 -10z"/>
<path d="M2056 3079 c-30 -35 -32 -49 -11 -88 16 -33 33 -41 80 -41 67 0 99
87 50 135 -36 37 -86 34 -119 -6z m92 -51 c2 -19 -2 -28 -18 -33 -24 -8 -50
10 -50 35 0 24 10 31 40 28 19 -2 26 -10 28 -30z"/>
<path d="M2552 2634 c-27 -19 -28 -45 -2 -69 17 -15 24 -16 46 -7 31 15 30 57
-1 78 -18 12 -24 11 -43 -2z"/>
<path d="M2427 2422 c-33 -36 -8 -92 40 -92 25 0 53 30 53 57 0 46 -62 69 -93
35z"/>
</g>
</svg>
