<?xml version="1.0" encoding="utf-8"?>
<!-- Generator: Adobe Illustrator 23.0.1, SVG Export Plug-In . SVG Version: 6.00 Build 0)  -->
<svg version="1.1" id="Layer_1" xmlns="http://www.w3.org/2000/svg" xmlns:xlink="http://www.w3.org/1999/xlink" x="0px" y="0px"
	 viewBox="0 0 600 600" style="enable-background:new 0 0 600 600;" xml:space="preserve">
<style type="text/css">
	.st0{fill:url(#SVGID_1_);}
	.st1{fill:url(#SVGID_2_);}
	.st2{fill:url(#SVGID_3_);}
</style>
<linearGradient id="SVGID_1_" gradientUnits="userSpaceOnUse" x1="-120.2982" y1="597.2843" x2="-119.3585" y2="597.2843" gradientTransform="matrix(969.4116 0 0 943.6259 116306.6172 -563315.875)">
	<stop  offset="0" style="stop-color:#F6EB16"/>
	<stop  offset="1" style="stop-color:#ED2224"/>
</linearGradient>
<path class="st0" d="M598.5,301.44c-3.76-21.14-22.83-39.56-46.05-44.45c-13.63-2.91-30.73-0.47-42.19,5.83
	c-4.13,2.26-6.01,2.54-3.48,0.47c0.66-0.56,3.57-2.35,6.3-3.85c6.11-3.38,4.23-3.76-2.63-0.47l-4.98,2.26v-3.57
	c0-22.46-17.01-43.6-39.84-49.43c-3.01-0.75-5.73-1.6-5.92-1.79c-0.28-0.19-1.03-2.82-1.88-5.92c-6.2-24.06-24.62-44.82-49.43-56.1
	c-8.65-3.95-24.15-8.55-34.96-10.43c-6.67-1.22-33.08-3.01-46.23-3.29c-1.88,0-1.88-0.09,0.75-2.73c3.66-3.76,3.66-7.71,0-11.46
	c-3.76-3.66-7.71-3.66-11.46,0c-3.66,3.66-3.66,7.71,0,11.46l2.73,2.63l-5.83-0.47c-39.37-3.57-59.2-10.34-76.87-26.59
	c-9.77-8.93-22.18-27.63-25.65-38.43c-1.69-5.17-3.57-6.86-5.45-4.98c-1.32,1.32,0,3.95,9.96,20.11
	c10.9,17.76,19.08,26.78,32.33,35.43c17.01,11.18,37.59,16.35,74.99,18.98l16.91,1.22l-11.75,0.56c-29.22,1.5-51.4-2.54-69.54-12.59
	c-21.24-11.75-31.29-22.08-52.81-54.22c-24.9-37.21-36.37-49.43-57.7-61.55c-6.86-3.95-8.83-4.79-8.83-3.85
	c0,0.19,2.35,2.16,5.26,4.32c18.61,14,30.07,28.94,45.95,59.67c10.05,19.55,19.64,33.74,29.98,44.17
	c23.96,24.24,51.78,36.65,83.82,37.31l9.49,0.19l-9.49,4.7c-7.99,3.95-10.81,6.01-18.04,13.25c-7.24,7.14-9.3,9.87-12.97,17.38
	c-2.73,5.54-4.79,11.37-5.45,15.22l-1.13,6.39l-33.83,0.04v20.59l34.02-0.02l1.13,4.36c3.95,15.79,19.55,31.85,36.55,37.8
	c8.18,2.79,23.59,3.16,31.76,0.74c10.81-3.34,18.42-8.82,24.81-18.11c4.04-5.76,7.99-8.17,18.51-11.7
	c14.28-4.74,30.26-0.28,33.92,9.47c1.6,4.18,1.22,8.45-1.13,11.89c-2.63,3.81-5.64,5.48-10.34,5.48c-10.43,0-15.79-12.26-7.89-18.02
	c3.57-2.6,8.83-2.51,11.09,0.28c1.03,1.21,1.79,1.76,1.79,1.21c0-1.67-4.79-4.83-7.24-4.83c-3.01,0-7.33,2.32-9.12,4.83
	c-1.88,2.69-1.88,8.36,0,11.98c1.5,3.06,7.61,6.32,11.56,6.41c4.51,0,10.15-3.53,12.22-7.8c1.13-2.14,1.97-4.74,1.97-5.76
	c0-3.53-1.88-8.36-4.42-10.96c-1.32-1.49-2.07-2.51-1.6-2.32c0.47,0.28,6.58,3.16,13.53,6.59c13.06,6.32,20.86,9.1,25.56,9.1
	c6.2,0,11.09-5.39,9.77-10.77c-1.69-6.59-9.96-9.19-14.94-4.64c-2.44,2.23-4.23,6.59-3.1,7.71c0.28,0.37,0.56-0.19,0.56-1.21
	c0-4.92,5.73-8.54,10.99-6.78c8.55,2.79,5.83,13.84-3.48,13.84c-5.07,0-7.99-1.11-27.63-10.49l-17.85-8.54h-11.28
	c-11.18,0-11.46,0.09-18.79,3.53c-4.04,1.86-7.61,3.25-7.8,3.06c-1.32-1.21,2.35-4.36,8.36-7.15c6.39-2.97,7.52-3.16,15.98-3.16
	c6.77,0.09,8.74-0.19,7.52-0.93c-0.85-0.46-5.36-0.93-10.05-0.93c-7.05,0.09-9.49,0.46-14.38,2.51l-5.92,2.51l0.28-4.36l0.28-4.36
	h44.82c24.62,0,45.11,0.28,45.48,0.65c0.38,0.37,0.85,2.88,1.13,5.57c0.47,3.99,0.66,4.46,1.22,2.6c0.38-1.3,0.66-3.62,0.75-5.29
	c0.09-2.79,0.19-2.88,2.91-2.14c4.89,1.39,12.22,5.85,15.51,9.47c6.86,7.52,9.87,17,9.87,31.67v7.15l-6.11,7.99
	c-11.37,14.67-20.02,35.38-26.69,63.62c-2.07,9.01-4.23,17.37-4.7,18.67c-2.35,6.22-7.8,7.24-12.78,2.32
	c-3.38-3.34-5.64-9.75-4.7-13.37c0.38-1.67,0.19-2.23-0.66-1.95c-2.07,0.65-4.51,6.5-4.51,10.68v3.99l-3.01-1.86
	c-3.95-2.41-8.55-2.32-13.91,0.09l-4.23,1.95l4.98,1.21c3.2,0.74,7.89,3.16,13.44,6.78c11.84,7.99,18.79,8.73,24.9,2.88
	c4.32-4.09,6.58-9.94,8.83-22.75c3.29-18.39,11.75-46.53,15.98-53.03c1.22-1.86,1.32-2.14-1.97,6.97
	c-5.45,15.51-6.77,38.36-3.85,69.84c3.57,37.98,3.57,35.66,0.38,44.21c-1.5,4.18-4.32,9.84-6.11,12.72
	c-1.97,2.97-3.01,5.48-2.54,5.76c1.22,0.74,4.79-0.37,6.77-2.14c2.07-1.76,2.07-0.93,0.19,5.48c-4.32,14.49-14.94,27.4-27.72,33.62
	c-4.04,1.95-11.56,4.46-16.91,5.76c-5.36,1.21-8.46,2.23-6.86,2.23c10.05,0.28,29.79-7.99,37.87-15.88l5.17-4.92l-2.73,4.64
	c-3.66,6.5-10.81,16.53-24.24,34.18c-17.48,22.85-24.53,35.2-27.53,47.92c-3.29,13.74,1.22,26.28,11.75,32.41
	c5.64,3.25,14.57,3.53,20.3,0.56c4.32-2.23,9.49-9.1,10.43-14.02c1.79-9.47-8.18-20.71-18.42-20.71c-4.04,0-10.05,2.69-12.87,5.66
	c-6.48,7.06-4.79,17.55,3.1,19.04c4.32,0.84,8.83-3.25,8.83-7.89c0-4.09-2.91-7.43-6.86-7.71c-3.29-0.28-2.82-1.49,1.22-3.71
	c9.49-5.02,21.9,2.23,21.9,12.72c0,13.37-16.26,20.9-27.72,12.91c-7.8-5.39-10.62-12.26-9.87-23.77
	c0.85-12.26,8.36-26.75,25.84-49.31c16.35-21.36,23.02-30.46,27.06-37.61c11.93-20.71,16.91-41.98,18.23-78.2l0.66-19.04l0.09,14.39
	c0.28,24.33-2.07,44.3-7.05,59.81c-5.07,16.07-13.25,30.09-32.61,56.19c-18.79,25.26-25.65,37.43-26.41,46.53l-0.38,5.11l0.85-4.46
	c1.79-9.84,8.55-21.17,28.66-48.01c17.67-23.59,26.97-38.63,30.54-49.5c0.56-1.95,1.32-3.44,1.5-3.16
	c0.47,0.46-2.54,8.92-5.73,15.97c-3.38,7.52-7.71,14.58-17.48,28.33c-12.69,18.02-12.4,17.37-13.16,35.29
	c-0.28,8.45-0.47,15.51-0.28,15.69c0.56,0.65,6.11-8.92,6.95-12.17c0.56-1.86,1.22-6.69,1.5-10.68c0.75-10.03,3.29-18.02,8.65-26.75
	c2.54-4.09,6.67-10.77,9.12-14.77c8.83-14.21,14.75-30.65,18.51-50.71c1.6-8.64,2.07-15.6,2.35-36.22
	c0.28-14.02,0.09-26.47-0.38-27.67c-0.47-1.3-0.66,2.6-0.47,10.22c0.09,6.78-0.09,16.9-0.56,22.57c-0.75,8.73-0.85,5.85-1.03-19.41
	l-0.09-29.63l3.29,3.62l3.2,3.62l-0.19,115.16l-0.01,8.19c5.37,0.89,10.82,1.55,16.27,1.82c0-1.93,0-3.88,0-5.87V371.26l3.19,3.48
	c4.7,5.36,7.14,10.81,7.14,16.26c0,2.54,0.38,4.7,0.85,4.7c0.94,0,6.01-9.59,7.61-14.47c1.79-5.64,1.41-14.66-0.85-19.83
	c-1.22-2.73-5.07-7.71-9.96-12.59c-7.89-8.08-7.99-8.27-7.99-12.97v-4.7l4.13-0.47c3.95-0.47,9.96-3.76,9.96-5.36
	c0-0.47-1.69-1.03-3.66-1.41c-2.35-0.38-4.98-1.69-7.05-3.76l-3.38-3.1V283.2l2.73-3.76c3.85-5.36,7.05-7.52,13.91-9.68
	c4.51-1.41,8.55-1.88,15.22-1.79c9.3,0.09,17.67,1.5,9.96,1.69c-5.17,0.09-12.22,3.76-12.22,6.2c0,1.6,0.56,1.88,3.76,1.6
	c2.07-0.19,7.61-0.38,12.22-0.47c7.52-0.09,9.02,0.09,13.16,2.35c6.39,3.29,12.78,9.12,16.44,14.85
	c7.71,12.03,3.01,30.35-9.59,37.59c-6.48,3.66-10.62,4.23-17.76,2.35c-11.46-2.91-19.08-10.15-21.52-20.2
	c-1.88-7.8-3.76-5.26-3.76,5.17c0,18.79,22.37,33.83,41.91,28.19C589.1,341.84,602.07,321.08,598.5,301.44z M277.96,206.81
	c-1.13,0-1.03-1.79,0.19-7.52c1.32-6.3,1.79-5.64,1.13,1.69C279,204.18,278.34,206.81,277.96,206.81z M328.33,252.95
	c-16.91,3.01-38.9-8.65-47.36-25.18c-2.16-4.42-2.35-4.98-1.13-4.98c0.47,0,1.97,2.35,3.38,5.26c3.76,7.61,11.18,14.75,19.45,18.7
	c7.8,3.76,14.1,5.07,23.68,5.26l6.67,0.09L328.33,252.95z M357.46,226.26c-0.85,4.79-4.04,12.03-6.01,13.81
	c-2.91,2.63-15.32,6.3-23.12,6.86c-12.5,0.85-24.9-3.38-32.89-11.46c-3.48-3.38-7.99-10.34-7.99-12.22c0-0.28,15.88-0.47,35.33-0.47
	h35.33L357.46,226.26z M306.44,205.68c0.75-2.16,7.33-6.67,12.22-8.46c6.67-2.35,14.28-1.69,21.9,1.97c3.1,1.5,6.95,3.85,8.46,5.17
	l2.82,2.35l-22.83,0.09C311.7,206.81,306.16,206.52,306.44,205.68z M361.6,206.81l-2.82-3.29c-1.6-1.79-4.32-4.13-6.11-5.26
	c-3.29-1.97-3.29-2.07-1.22-3.1c2.73-1.32,3.19-2.82,1.32-4.7c-1.88-1.88-2.73-1.88-4.6,0c-1.13,1.13-1.22,1.88-0.56,3.29
	c0.94,1.79,0.85,1.69-3.85-0.09c-14.28-5.64-30.07-1.97-37.68,8.93l-3.01,4.23h-18.61l0.66-5.36c1.6-12.78,7.42-24.9,16.44-34.11
	c4.51-4.6,6.48-5.83,15.04-9.12c22.37-8.74,44.17-11.93,65.59-9.68c19.45,2.07,35.52,8.55,48.11,19.55l3.29,2.91l-5.92-2.35
	c-9.49-3.76-17.48-5.17-33.55-5.73c-12.5-0.38-17.48-0.19-29.13,1.5c-22.27,3.29-32.51,3.57-40.31,1.22
	c-4.7-1.41-6.95-1.69-8.27-1.03c-2.07,1.13-2.16,3.01-0.38,4.6c1.79,1.41,31.76,0.47,47.74-1.5c42.01-5.17,72.73,2.07,82.88,19.55
	l1.88,3.1l-4.42-3.85c-11.56-10.15-30.63-15.13-43.32-11.28c-13.34,4.04-20.77,17.1-16.16,28.29l1.41,3.29H361.6z M421.93,206.71
	h-32.8l-1.6-3.66c-3.48-7.61,0.28-17.29,8.46-22.08c7.24-4.23,15.6-4.79,26.69-1.69c7.71,2.07,15.69,6.48,21.05,11.37
	c4.51,4.23,10.99,13.16,10.99,15.22C454.72,206.52,444.29,206.81,421.93,206.71z M473.24,329.16c0.19,0.94,0.19,2.44,0,3.29
	c-0.28,0.94-0.47,0.19-0.47-1.6S472.95,328.31,473.24,329.16z M474.18,380.18l-0.66-7.05c-0.38-3.85-0.94-13.16-1.22-20.67
	l-0.56-13.63l1.32,14.57c0.66,7.99,1.22,17.29,1.22,20.67L474.18,380.18z M475.12,385.54c-0.19,1.22-0.38,0.47-0.38-1.6
	c-0.09-2.07,0.09-3.01,0.38-2.16C475.3,382.72,475.3,384.41,475.12,385.54z M478.87,358.38c-0.19,2.16-0.28,0.09-0.28-4.51
	c0-4.7,0.09-6.39,0.28-3.95C479.06,352.37,479.06,356.22,478.87,358.38z M476.71,447.75c-0.28,1.41-0.75,2.35-1.03,2.16
	c-0.19-0.28-0.09-1.6,0.28-2.91c0.28-1.41,0.75-2.35,1.03-2.16C477.18,445.12,477.09,446.43,476.71,447.75z M477.93,442.86
	c-0.28,0.75-0.56,0.47-0.56-0.56c-0.09-1.03,0.19-1.6,0.47-1.22C478.12,441.36,478.22,442.2,477.93,442.86z M478.87,439.1
	c-0.28,0.75-0.56,0.47-0.56-0.56c-0.09-1.03,0.19-1.6,0.47-1.22C479.06,437.6,479.16,438.44,478.87,439.1z M479.81,434.4
	c-0.28,0.75-0.56,0.47-0.56-0.56c-0.09-1.03,0.19-1.6,0.47-1.22C480,432.9,480.1,433.75,479.81,434.4z M480.75,429.71
	c-0.28,0.66-0.47,0.19-0.47-1.13c0-1.32,0.19-1.79,0.47-1.22C480.94,428.01,480.94,429.14,480.75,429.71z M481.69,423.6
	c-0.28,0.94-0.47,0.38-0.47-1.13c0-1.6,0.19-2.26,0.47-1.69C481.88,421.44,481.88,422.75,481.69,423.6z M482.63,416.55
	c-0.19,1.22-0.38,0.28-0.38-2.07c0-2.35,0.19-3.29,0.38-2.16C482.82,413.54,482.82,415.42,482.63,416.55z"/>
<linearGradient id="SVGID_2_" gradientUnits="userSpaceOnUse" x1="-119.9799" y1="597.3186" x2="-119.2119" y2="597.3186" gradientTransform="matrix(969.4116 0 0 943.6259 116306.6172 -563315.875)">
	<stop  offset="0" style="stop-color:#F6EB16"/>
	<stop  offset="1" style="stop-color:#ED2224"/>
</linearGradient>
<path class="st1" d="M575.47,440.62c-14.21-4.3-29.72,2.3-35.79,15.28c-2.76,5.91-2.92,14.98-0.31,19.89
	c2.69,5.15,5.99,8.45,11.06,10.98c10.6,5.22,22.96,1.38,27.72-8.6c1.31-2.76,1.84-10.21,0.77-10.83c-0.38-0.23-0.61,1.77-0.61,4.45
	c0,4.22-0.31,5.3-2.38,8.14c-3.53,4.91-9.52,7.99-15.28,7.99c-7.99-0.08-15.9-4.99-19.81-12.29c-2.53-4.68-2.38-13.21,0.31-18.89
	c8.06-17.2,31.79-20.89,45.54-7.14c9.98,9.91,10.91,26.19,2.38,39.24c-13.59,20.66-41.62,25.11-78.41,12.52
	c-7.91-2.69-43.85-19.74-43.16-20.43c0.15-0.08,3.23,0.84,6.76,2.07c8.99,3.23,15.9,4.53,23.27,4.53c6.07,0,10.06-1,7.45-1.84
	c-0.61-0.15-3.61-0.54-6.6-0.77c-15.74-1.31-28.8-8.37-88.85-48.23c-20.2-13.36-41.01-26.8-46.31-29.8
	c-13.21-7.53-31.72-16.59-43.93-21.58l-10.29-4.15l63.61-0.15V367.7l-38.12,0.04v-3.95c0-2.2-0.54-5.01-1.15-6.22
	c-1.46-2.73-1.54-2.35,1.15-3.49c5.07-2.05,6.22-7.67,2.38-11.46c-5.53-5.46-14.82,0.68-11.37,7.51l1.08,2.28l-3,0.46
	c-1.69,0.3-5.3,1.52-8.06,2.73c-2.76,1.29-5.15,2.28-5.3,2.28c-0.15,0-0.31-0.99-0.31-2.13c0-2.2,0-2.28,20.66-20.11
	c2.76-2.43,6.14-4.93,7.37-5.62c3.15-1.67,9.37-3.26,12.9-3.26c3.23,0,3.46-0.38,1.31-2.66l-1.61-1.67l4.22-1.29
	c2.53-0.83,6.68-1.37,10.21-1.29c9.45,0,15.74,2.81,24.58,10.93c4.53,4.1,4.84,4.33,2.53,1.44c-4.84-6-13.13-11.31-20.97-13.43
	c-3.76-0.99-2.92-1.06,14.44-1.14c33.56-0.08,43.47-2.35,49.69-11.54c2.92-4.25,3.07-11.08,0.31-15.1
	c-6.37-9.26-20.43-5.54-20.43,5.39c0,8.58,9.14,13.74,15.28,8.65c2.69-2.2,3.15-5.09,1.08-7.29c-1.23-1.37-4.53-1.82-6.07-0.76
	c-1.84,1.14-2.69,3.87-1.84,5.54c1.15,2.05,0.54,2.58-1.69,1.44c-3.07-1.59-4.45-3.95-4.45-7.67c0-4.33,2-7.13,6.07-8.35
	c2.46-0.76,3.46-0.61,6.37,0.68c8.99,3.87,7.76,17.08-2.15,22.24c-7.68,4.1-14.05,4.78-41.78,4.4c-13.29-0.15-13.21-0.23,6.53-0.68
	c12.13-0.3,21.5-0.91,23.81-1.52c4.3-1.06,9.22-3.34,9.98-4.55c0.31-0.46-0.92-0.08-2.61,0.83c-5.38,2.73-8.22,3.04-32.72,3.79
	c-13.06,0.3-25.04,0.83-26.5,0.99l-2.69,0.38l2.69-0.68c1.46-0.46,8.91-1.06,16.51-1.44c7.6-0.38,14.75-1.06,15.97-1.52
	c1.15-0.46,4.3-2.5,7.07-4.55c2.69-2.05,5.61-3.95,6.53-4.25c2.07-0.68,1.92-1.9-0.23-1.9c-3.23,0-8.68,1.97-12.36,4.48
	c-5.15,3.57-8.83,4.55-19.58,5.46c-5.3,0.46-11.9,1.29-14.67,1.82c-14.59,3.04-31.41,11.61-47.77,24.51
	c-6.53,5.16-8.29,7.29-2.3,2.88c4.3-3.19,15.97-11.08,13.21-8.88c-6.76,5.31-17.66,12.83-17.89,12.37c-0.15-0.3-0.92-3.64-1.69-7.51
	c-1.69-8.35-1-11.92,3.15-16.01c1.46-1.44,2.46-2.81,2.3-3.04c-0.46-0.38-7.53,0.91-9.83,1.75c-1,0.38-1.69-0.3-3-2.81
	c-3-5.92-9.52-15.33-14.67-21.18c-9.14-10.32-24.73-20.95-37.32-25.43c-3.3-1.14-6.68-2.35-7.68-2.73c-0.92-0.3-1.92-1.21-2.15-1.9
	c-1.38-4.25-5.3-11.08-8.14-14.27c-3.92-4.4-10.75-8.88-15.36-10.17c-2.61-0.76-3.61-1.44-4.22-3.19c-1.15-2.88-5.38-4.78-8.29-3.72
	c-1.15,0.46-2.15,0.76-2.38,0.76c-0.15,0-0.23-36.42-0.15-81.09c-4.48-1.02-9.06-1.88-13.21-3.61c-0.02,54.75-0.21,60.1-1.23,58.15
	c-0.61-1.31-2.38-3.53-3.84-5.07c-2.46-2.53-2.69-3.15-3.3-9.6c-0.54-6.22-2.3-11.83-3.76-11.83c-0.31,0-0.61,3.3-0.61,7.3
	c-0.08,4.07-0.31,7.6-0.61,7.83c-2,2-7.83-5.99-11.06-15.05c-1.46-4.22-1.69-4.53-1.38-2c0.23,1.69,1.69,5.68,3.3,8.83
	c3.61,7.14,3.84,7.76,1.77,5.38c-2.46-2.76-5.91-9.91-7.37-15.21c-3-10.83,2.69-20.04,11.83-19.12c7.53,0.77,11.14,9.45,5.91,14.36
	c-2.69,2.46-7.91,2.92-10.37,0.84l-1.92-1.54l2-0.08c2.61,0,3.76-1.31,3.76-4.3c0-2.53-0.84-3.61-3.61-4.45
	c-1.31-0.38-2.23,0-3.76,1.46c-1.69,1.69-1.92,2.46-1.54,4.84c1,6.14,7.91,9.45,13.9,6.6c7.14-3.38,7.68-11.98,1.15-17.51
	c-3.3-2.76-9.22-2.84-13.21-0.08c-7.99,5.38-8.75,15.36-2.15,28.49c1.69,3.3,3.07,6.14,3.07,6.22c0,0.15-1.08,0.23-2.3,0.23
	c-3.07,0-3.38,1.15-1.61,6.22l1.46,4.22l-4.68,0.84c-2.53,0.54-6.22,1.92-8.14,3.07L144.4,210v-7.68c0-5.99-0.31-8.37-1.38-10.29
	c-0.77-1.31-1.61-2.46-1.92-2.46s-3.76,3-7.68,6.68c-8.06,7.68-7.83,7.76-6.3-3.23c1.54-11.14,1-10.14,5.84-9.75l4.22,0.38
	l3.69-3.84c2.53-2.69,3.92-4.84,4.53-7.37c1.08-4.22,1.23-10.29,0.23-10.91c-0.92-0.54-11.67,4.38-13.06,5.99c-1.61,2-2,1.54-1.77-2
	c0.08-1.77-0.08-6.3-0.38-10.14l-0.61-6.91l2.15-1.92c4.22-3.76,3.38-11.67-1.77-17.2l-3-3.15l-1.38,3.38l-1.46,3.38l-4.22-7.6
	l-4.22-7.68l1.84-1.38c1.61-1.23,1.84-1.92,1.46-4.84c-0.23-2-1-4.15-1.84-4.99c-1.54-1.46-1.54-1.46-3.46,1.69l-1.84,3.15
	l-4.68-9.83c-5.53-11.6-8.29-19.2-9.83-27.11l-1.08-5.76l0.23,4.61c0.31,5.22,4.53,18.58,8.06,25.65c1.31,2.53,2.38,4.84,2.38,5.07
	c0,0.15-1.54,0.15-3.46-0.15c-3.99-0.54-4.38,0.23-1.92,4.15c1.54,2.61,4.22,3.76,7.14,3.07c1.46-0.38,2.07,0.23,4.45,4.68
	l2.84,5.15l-4.15-0.23c-3.15-0.23-4.15,0-4.15,0.77c0,3.38,6.37,7.53,9.22,5.99c2.07-1.15,2.07-1.15,4.22,3.07
	c1.46,2.92,1.84,4.53,1.46,6.53c-0.46,2.61-0.46,2.61-2.38,1.38c-1-0.69-2.3-2.38-2.92-3.84c-2.23-5.22-11.29-6.3-15.67-1.92
	c-1.54,1.61-6.99,4.76-8.14,4.76c-0.08,0-0.77-2.07-1.54-4.61c-0.77-2.53-1.61-4.61-1.92-4.61c-0.23,0-1.61,1.15-3,2.61
	c-2.07,2.15-2.69,3.46-3,6.6c-0.31,3.23-0.08,4.22,1.31,5.68c1.61,1.69,1.61,1.84,0.38,4.76c-1.54,3.69-1.15,12.59,0.69,16.2
	l1.31,2.38l-4.99,0.54c-2.76,0.31-4.99,0.69-4.99,0.92c0,2.07,4.91,7.68,8.22,9.37c2.92,1.46,7.76,1.08,9.75-0.92
	c1.61-1.61,2-1.69,4.38-0.84c7.07,2.53,17.28,0.08,22.42-5.38c1.61-1.77,3.61-4.38,4.38-5.84l1.46-2.69l0.08,4.45
	c0,4.15-1.84,18.43-2.76,21.5c-0.38,1.23-0.69,1.08-2.3-1.23c-2.61-3.92-6.3-5.84-13.52-7.07c-8.75-1.54-8.52-1.61-8.22,1.69
	l0.31,2.92l-3.61-0.23c-10.21-0.77-19.81,7.3-19.81,16.67c0,3-0.15,3.23-1.31,2.3c-2-1.69-4.07-6.91-4.07-10.29
	c0-2.84,0.54-5.61,1.84-10.37l0.54-1.92l-1.15,1.92c-1.61,2.92-2.69,9.98-2.07,13.59c0.69,3.69,2.38,6.6,5.61,9.6l2.23,2.07
	l-1.92,0.54c-1.08,0.23-2,0.92-2,1.54c0,1.54,3.15,3.38,5.91,3.38c1.61,0,2.53,0.38,2.53,1c0,0.69-0.77,0.92-2.3,0.69
	c-4.07-0.61-7.07,3.99-4.45,6.6c1.46,1.46,5.07,1.08,6.76-0.61c0.84-0.84,1.69-1.54,1.84-1.54c0.46,0,1.84,3.99,2.3,6.84
	c0.38,2.23,0.31,2.46-0.69,1.61c-1.31-1.08-6.53-2.38-7.37-1.84c-1,0.54,0.92,4.84,2.61,6.07c0.92,0.61,2.61,1.15,3.69,1.15
	c2.07,0,2.07,0,2.15,5.91c0,3.3,0.38,7.22,0.84,8.68c1.15,3.99,1,5.61-0.46,5.07c-3.92-1.54-4.92-1.46-4.92,0.38
	c0.08,2.46,1.69,5.3,3.76,6.37l1.61,0.92l-2,2.61c-3.07,4.15-6.22,10.75-7.68,16.2c-1.77,6.6-1.77,18.05,0,24.11
	c4.61,15.59,16.82,28.18,31.49,32.56l5.99,1.77l-0.46,2.46c-0.92,4.61-1.38,26.96-0.61,31.56c0.84,5.38,0.31,7.99-0.92,4.15
	c-1.08-3.38-4.22-4.61-7.22-2.92c-1.69,0.92-2.07,1.69-2.07,4.07c0,2.38,0.46,3.3,2.07,4.53c1.77,1.31,2.46,1.46,3.99,0.69
	c1.84-0.84,1.84-0.69-0.84,3.53c-16.36,25.8-32.18,35.33-57.44,34.56c-7.76-0.15-9.22-0.08-9.22,0.92c0,0.84,1.08,1.23,3.84,1.38
	c3.38,0.23,16.74-0.77,23.04-1.77c1.31-0.15,0.38,0.15-1.92,0.77c-2.3,0.61-11.14,1.84-19.58,2.69c-22.66,2.3-30.33,3.99-40.7,8.75
	c-5.3,2.46-14.51,8.14-13.13,8.14c0.38,0,3.76-1.23,7.6-2.76c11.52-4.61,18.28-5.68,39.7-5.99c19.89-0.38,26.57-1.15,36.56-4.61
	c15.9-5.38,28.8-15.28,37.78-29.03c4.15-6.45,4.76-6.37,4.76,0c0,5.38,2,12.83,4.84,18.12c4.92,9.29,15.74,17.74,24.73,19.28
	c1.69,0.31,5.15,1.92,7.68,3.53c2.53,1.61,8.22,4.61,12.67,6.76c4.45,2.07,8.75,4.53,9.6,5.45c1.23,1.31,2.15,1.54,6.07,1.38
	c4.22-0.15,16.43,1.31,17.2,2c0.15,0.23,1.23,3.07,2.38,6.37c5.76,16.51,18.82,28.34,36.25,32.87c6.83,1.77,17.74,1.69,24.88-0.15
	c1.46-0.38,1.46-0.31-0.15,0.84c-4.91,3.61-12.98,17.28-15.28,25.88c-1.69,6.45-1.77,17.97-0.08,24.42
	c7.3,27.65,40.93,48.38,72.5,44.7c17.97-2.15,33.94-10.52,48.08-25.34c14.98-15.67,23.73-35.25,25.88-57.52
	c2.92-30.95-11.75-63.36-39.32-86.7c-12.83-10.91-32.33-22.5-49.53-29.49c-3.53-1.38-6.37-2.76-6.37-3.07
	c0-0.69,11.75,4.07,22.66,9.22c13.44,6.37,23.65,12.75,58.75,36.56c52.38,35.63,71.42,47.61,93.08,58.44
	c27.34,13.67,48.54,19.81,68.2,19.66c16.05-0.08,27.19-4.3,36.94-13.98c9.14-8.99,12.59-17.51,12.06-29.11
	C596.28,454.83,588.37,444.54,575.47,440.62z M360.13,314.06c0.84-0.08,1.31,0.15,1,0.38c-0.23,0.23-0.92,0.31-1.46,0.08
	C359.05,314.29,359.28,314.06,360.13,314.06z M352.29,318.67c2.07-1.38,12.98-3.84,16.74-3.76c3.23,0,3.15,0.08-1.15,0.61
	c-4.07,0.54-11.14,2.15-15.51,3.53C351.14,319.44,351.14,319.36,352.29,318.67z M336.4,326.43c0.92-1,12.75-6.99,13.75-7.07
	c0.38,0,0.54,0.15,0.38,0.31C349.68,320.44,335.7,327.12,336.4,326.43z M335.24,327.04c0.23,0.08-0.31,0.61-1.15,1.23
	c-2,1.54-4.22,2.76-4.22,2.3C329.87,330.19,334.71,327.04,335.24,327.04z M327.49,332.19c1-1.23,1.61-1.61,1.61-1
	c0,0.15-0.61,0.77-1.31,1.31C326.57,333.49,326.49,333.41,327.49,332.19z M319.04,342.17c1.77-1.92,2.38-2.46,2.38-1.84
	c0,0.15-0.92,1.08-2.07,2.15l-2.15,1.84L319.04,342.17z M312.97,347.08c4.15-3.69,4.99-4.07,1.84-0.77
	c-1.23,1.31-2.92,2.69-3.76,3.15C310.21,349.85,311.05,348.85,312.97,347.08z M334.32,344.86c2.61,2.61-0.46,6.91-3.69,5.22
	c-0.84-0.46-1.54-0.92-1.54-1.15c0-0.15-0.23-0.77-0.46-1.38C327.72,345.09,332.33,342.86,334.32,344.86z M309.75,364.75
	c0.31-2.84,0.54-3.15,4.61-4.92c7.83-3.38,10.37-3.69,11.67-1.38c1.08,2.07,1,3.61-0.46,6.68l-1.23,2.61h-14.9L309.75,364.75z
	 M127.12,160.62c-0.84,2.23-2,4.68-2.53,5.38c-0.77,1.15-0.92,0.92-1.08-1.77c-0.31-4.45-3.76-10.83-5.91-10.75
	c-1.38,0.08-5.07,8.83-5.07,11.98c0,1.54,0.69,3.92,1.54,5.3l1.54,2.53l-2.38,0.84c-5.68,2-14.21,0.38-16.74-3.07
	c-0.92-1.23-2.76-2.76-4.15-3.46c-3.99-2.07-5.61-4.92-2.84-4.92c2.23,0,5.22-3.46,5.84-6.6c0.61-3.15-0.08-7.22-1.54-9.22
	c-1.08-1.38-1.23-1.31-4.22,1.54l-3.15,3.07l0.77-2.69c0.46-1.38,0.77-2.76,0.77-2.92c0-1.08,8.6-8.37,10.75-9.06
	c3.92-1.23,4.45-1.15,7.14,0.84c3.23,2.38,5.68,2.84,8.99,1.69c2.3-0.84,3-0.77,4.76,0.46c3,2.07,7.3,8.83,8.22,13.06
	C128.51,155.94,128.43,157.16,127.12,160.62z M80.97,220.29c-1.84,0-2.23-0.31-2.23-1.77c0-1,0.23-2.07,0.54-2.3
	c1-1,4.92-0.54,5.3,0.61C85.27,218.6,83.43,220.29,80.97,220.29z M292.7,480.56l2.92-3l1.23,2.15c0.92,1.38,1.08,2.23,0.46,2.53
	c-0.46,0.31-2.38,0.69-4.22,0.92l-3.38,0.38L292.7,480.56z M321.73,459.21c-1.69-2.3-8.37-5.45-11.83-5.45h-2.69l0.23-7.45
	c0.31-8.14-0.69-14.9-2.92-20.04c-0.84-1.77-1.23-3.23-1-3.23c0.31,0,2.07,0.92,3.99,2c11.52,6.68,19.97,14.98,24.5,24.04
	c2.69,5.45,2.84,6.14,2.84,13.44c0,7.14-0.15,8.06-2.3,11.9c-2.61,4.68-6.3,7.99-10.83,9.75c-2.92,1.08-3.46,1.08-6.76,0
	c-1.92-0.69-5.99-1.46-8.99-1.69c-4.92-0.46-5.53-0.77-7.3-3c-2.3-3-2.3-3,0-5.99c2.53-3.46,5.07-8.6,6.68-13.59l1.31-4.22
	l3.46-0.23c4.07-0.31,8.75,1.77,11.21,4.92C323.26,462.74,323.49,461.82,321.73,459.21z M305.75,484.47
	c-1.08-0.46-0.23-0.54,2.23-0.23c2.15,0.23,4.53,0.77,5.38,1.15C315.35,486.24,307.98,485.32,305.75,484.47z M218.28,244.64
	c5.76,2.84,11.06,8.14,13.98,13.98c2.38,4.68,2.38,4.68,0.69,4.3c-3.84-0.84-11.9-1.92-14.59-1.92c-2.61,0-2.92-0.23-2.92-1.92
	c0-2.84-2.23-8.83-4.53-12.29C207.15,241.18,209.68,240.41,218.28,244.64z M204.3,235.04c2,0.23,2.3,0.54,2.53,2.69
	c0.31,2.92-0.46,3.15-3.76,1.23C199.54,236.88,200.23,234.65,204.3,235.04z M185.34,232.58c0.15-1.31,0.46-2.3,0.61-2.3
	c0.15,0,0.31,1,0.31,2.3c0,1.23-0.31,2.3-0.61,2.3C185.26,234.88,185.11,233.81,185.34,232.58z M192.79,248.02
	c4.15,1.15,8.37,5.68,9.52,10.29c2.92,11.52-8.75,21.43-19.66,16.9c-5.68-2.38-8.68-7.07-8.68-13.67c0-6.6,3.61-11.21,10.75-13.82
	C186.64,247.02,189.56,247.09,192.79,248.02z M135.26,221.29c1.84-1.38,2-0.92,0.84,2.53l-1.08,2.92l-0.54-2.23
	C134.03,222.83,134.27,222.06,135.26,221.29z M130.2,221.83c0.46,0,1.08,0.77,1.46,1.69c1.69,4.53,1.61,5.38-0.23,2.23
	C129.2,221.98,129.12,221.83,130.2,221.83z M123.21,197.56c1.61-1.23,1.92-0.84,1.31,1.69c-0.54,1.92-0.61,1.92-1.54,0.61
	C122.05,198.63,122.13,198.33,123.21,197.56z M91.72,246.63c-1-2.46-0.77-5.61,0.38-5.61c2.61,0,4.45-5.91,3.07-9.6
	c-0.46-1.08-0.69-1-2.3,0.46l-1.84,1.69v-3c-0.08-1.61-0.38-4.45-0.69-6.22c-0.46-2.46-0.38-3.3,0.46-3.61
	c0.54-0.23,1.38-1.23,1.84-2.3c0.61-1.31,1.69-1.92,3.84-2.23c1.61-0.23,4.15-1.15,5.68-2.07c9.52-5.91,5.45-21.5-5.61-21.5
	c-2.92,0-7.07,2.3-7.07,3.92c0,0.38,0.69,0,1.54-0.84c3.46-3.46,10.14-2.61,13.21,1.77c2.61,3.61,2.53,10.37-0.15,13.21
	c-2.53,2.69-5.53,4.22-8.37,4.22c-1.84,0-2.61-0.54-3.53-2.3c-1.38-2.76-2.15-2.84-3.61-0.61c-0.92,1.38-1.23,1.46-2,0.54
	c-0.46-0.61-2-2.38-3.3-3.99c-4.53-5.45-3.69-13.67,1.92-18.89c2-1.92,8.83-4.61,11.67-4.68c0.92,0,2.69,0.23,3.99,0.46
	c1.38,0.31,2.61,1.15,3.07,2.23c2.38,5.15,10.06,11.06,14.51,11.14c2.92,0,5.45,5.45,5.76,12.36c0.15,4.53,0,5.76-0.69,5.53
	c-1.46-0.54-1.23,0.92,0.31,2.15c1,0.92,3.3,5.22,3.3,6.3c0,0.15-1.61-0.46-3.61-1.46c-3.07-1.61-4.68-1.84-11.9-1.84
	c-9.45,0-9.52,0.08-6.68,5.84c2,4.15,6.68,8.99,10.6,11.06c4.53,2.3,10.75,2.15,13.75-0.38c1.31-1.08,2.46-1.92,2.69-1.92
	s0.61,1.15,0.92,2.46c0.31,1.38,0.69,3.15,0.92,3.92c0.31,1.31,0,1.38-4.22,0.84c-5.22-0.54-13.98,0.69-19.74,2.84
	c-2.07,0.84-3.84,1.46-3.84,1.46c-0.08,0-0.08-0.77-0.15-1.77c-0.23-2.84-3.69-5.15-7.6-5.15c-3.15,0-3.46,0.15-3,1.54
	c0.31,0.92,0.15,1.54-0.38,1.54c-0.46,0-1.23,0.92-1.69,2C92.33,247.86,92.18,247.94,91.72,246.63z M94.87,255.46
	c-1.08,0.69-1.46,0.61-1.84-0.31c-1-2.69-0.31-3.3,2-1.61C96.17,254.47,96.17,254.62,94.87,255.46z M94.48,251.47
	c-1.46-1.08-1.46-1.15-0.15-3.92l1.31-2.76l2.38,1.92c1.31,1.08,3.3,2,4.38,2c2,0,1.92,0.08-1,1.92
	C97.86,252.78,96.48,252.93,94.48,251.47z M116.37,386.02c-6.68,11.83-15.74,21.43-25.88,27.42c-3.3,1.92-6.3,3.46-6.76,3.46
	c-0.38,0,1.46-1.31,4.22-2.84c6.83-3.76,18.12-15.44,24.96-25.73C118.52,379.8,120.6,378.42,116.37,386.02z M151.47,292.71
	c-1.77,19.51-23.5,29.8-39.93,18.89c-6.6-4.38-10.6-12.06-10.75-20.66c-0.08-6.99,1.84-12.21,6.45-17.2
	c7.14-7.83,15.82-10.21,26.96-7.3C144.4,269.06,152.47,281.35,151.47,292.71z M159.53,224.59c-2.61,2.92-11.44,16.67-12.44,19.35
	l-1.23,3.3l-3.15-2.3c-2.76-2-3.23-2.84-4.45-7.68c-1.15-4.61-1.15-5.99-0.38-9.45c3.07-12.83,10.67-20.04,22.66-21.27
	c0.46-0.08,1.31,1.23,1.92,2.76c0.61,1.61,1.23,3.15,1.38,3.46c0.15,0.23-1.23,0.38-3.07,0.15l-3.3-0.23l3.76,0.77
	c2.46,0.46,4.53,1.54,6.07,3.15c2.84,2.76,7.76,5.15,10.67,5.22c2.92,0,5.22,3.23,5.22,7.22c0,5.15-0.61,6.37-3.3,6.91
	c-1.38,0.23-3.99,1.46-5.91,2.76c-1.84,1.23-3.61,2-3.92,1.69c-0.31-0.31-0.92-1.92-1.46-3.61
	C166.6,230.58,160.91,222.9,159.53,224.59z M216.9,410.98l-7.45-0.38c-21.35-1.08-39.78-15.13-47.15-35.94
	c-1.54-4.38-1.77-6.45-1.77-16.9c0-10.98,0.15-12.29,2.07-17.51c6.22-16.97,19.89-29.49,36.86-33.94c6.91-1.77,18.97-2,25.8-0.38
	c18.28,4.3,32.49,17.66,38.71,36.09c1.54,4.61,1.77,6.91,1.77,15.74c0,11.37-1.23,16.67-5.84,25.42c-4.07,7.6-6.3,9.68-10.83,10.29
	c-9.37,1.31-20.04,6.53-28.11,13.82L216.9,410.98z M268.2,469.58c-4.15,1.92-5.68,2.23-11.67,2.23c-6.3,0-7.45-0.23-12.06-2.53
	c-8.29-4.07-13.52-11.14-15.28-20.5c-2.15-11.6,4.45-24.42,15.05-29.26c8.83-4.07,16.05-3.99,24.73,0.15
	c6.22,3,9.91,6.68,13.06,13.36c1.77,3.61,2.07,5.22,2.15,11.14c0,5.91-0.31,7.53-2.07,11.29
	C279.26,461.59,274.04,466.89,268.2,469.58z M385.62,482.4c0.23,0.23,0.31,0.92,0.08,1.46c-0.23,0.61-0.46,0.38-0.46-0.46
	C385.16,482.55,385.39,482.09,385.62,482.4z M320.73,415.36c21.96,9.75,45.31,35.17,52.53,57.14c3.84,11.67,4.76,26.65,2.38,39.24
	c-3.69,19.2-15.28,37.32-28.49,44.39c-4.22,2.23,0.38,1.46,5.38-0.92c19.51-9.22,33.18-34.87,33.48-62.59l0.08-7.76l1.15,5.38
	c1.54,7.37,0.92,24.04-1.15,31.87c-5.07,19.12-15.97,36.25-29.87,46.77c-6.83,5.22-17.59,10.44-25.11,12.36
	c-22.12,5.53-50.3-3.61-64.28-20.97c-11.9-14.74-13.82-32.87-5.3-50.15c3.07-6.14,9.45-14.05,13.82-17.2l2.15-1.54l2.46,3.92
	c3.07,4.99,3.84,4.38,1.31-1.15l-1.92-4.22l5.45-2.23c3.07-1.31,7.83-2.69,10.67-3.07c4.61-0.69,5.38-0.61,8.45,0.84
	c2.38,1.23,5.3,1.77,10.67,2.07c7.07,0.38,7.6,0.54,11.75,3.38c5.53,3.76,9.06,7.91,12.44,14.28c1.46,2.76,2.46,4.15,2.15,3.07
	c-1.61-6.3-10.91-17.66-16.28-19.89c-2.92-1.23-3.15-2.07-0.61-2.69c3.07-0.77,9.22-6.99,11.6-11.75c2.07-4.07,2.3-5.15,2.23-12.13
	c0-6.14-0.38-8.52-1.69-11.83c-4.92-11.83-14.67-21.66-30.41-30.64c-3.69-2.15-7.6-5.07-8.91-6.68c-2.07-2.69-2.15-2.92-1.08-4.61
	l1.23-1.84l7.76,2.69C309.06,410.44,316.2,413.28,320.73,415.36z"/>
<linearGradient id="SVGID_3_" gradientUnits="userSpaceOnUse" x1="415.7297" y1="49.5351" x2="264.7675" y2="435.1006">
	<stop  offset="0" style="stop-color:#7F3F98"/>
	<stop  offset="0.1138" style="stop-color:#804E95"/>
	<stop  offset="0.3505" style="stop-color:#826D8C"/>
	<stop  offset="0.6862" style="stop-color:#869973"/>
	<stop  offset="1" style="stop-color:#8DC63F"/>
</linearGradient>
<path class="st2" d="M270.27,511.17c4.3-14.21-2.3-29.72-15.28-35.79c-5.91-2.76-14.98-2.92-19.89-0.31
	c-5.15,2.69-8.45,5.99-10.98,11.06c-5.22,10.6-1.38,22.96,8.6,27.72c2.76,1.31,10.21,1.84,10.83,0.77c0.23-0.38-1.77-0.61-4.45-0.61
	c-4.22,0-5.3-0.31-8.14-2.38c-4.91-3.53-7.99-9.52-7.99-15.28c0.08-7.99,4.99-15.9,12.29-19.81c4.68-2.53,13.21-2.38,18.89,0.31
	c17.2,8.06,20.89,31.79,7.14,45.54c-9.91,9.98-26.19,10.91-39.24,2.38c-20.66-13.59-25.11-41.62-12.52-78.41
	c2.69-7.91,19.74-43.85,20.43-43.16c0.08,0.15-0.84,3.23-2.07,6.76c-3.23,8.99-4.53,15.9-4.53,23.27c0,6.07,1,10.06,1.84,7.45
	c0.15-0.61,0.54-3.61,0.77-6.6c1.31-15.74,8.37-28.8,48.23-88.85c13.36-20.2,26.8-41.01,29.8-46.31
	c7.53-13.21,16.59-31.72,21.58-43.93l4.15-10.29l0.15,63.61h13.33l-0.04-38.12h3.95c2.2,0,5.01-0.54,6.22-1.15
	c2.73-1.46,2.35-1.54,3.49,1.15c2.05,5.07,7.67,6.22,11.46,2.38c5.46-5.53-0.68-14.82-7.51-11.37l-2.28,1.08l-0.46-3
	c-0.3-1.69-1.52-5.3-2.73-8.06c-1.29-2.76-2.28-5.15-2.28-5.3c0-0.15,0.99-0.31,2.13-0.31c2.2,0,2.28,0,20.11,20.66
	c2.43,2.76,4.93,6.14,5.62,7.37c1.67,3.15,3.26,9.37,3.26,12.9c0,3.23,0.38,3.46,2.66,1.31l1.67-1.61l1.29,4.22
	c0.83,2.53,1.37,6.68,1.29,10.21c0,9.45-2.81,15.74-10.93,24.58c-4.1,4.53-4.33,4.84-1.44,2.53c6-4.84,11.31-13.13,13.43-20.97
	c0.99-3.76,1.06-2.92,1.14,14.44c0.08,33.56,2.35,43.47,11.54,49.69c4.25,2.92,11.08,3.07,15.1,0.31
	c9.26-6.37,5.54-20.43-5.39-20.43c-8.58,0-13.74,9.14-8.65,15.28c2.2,2.69,5.09,3.15,7.29,1.08c1.37-1.23,1.82-4.53,0.76-6.07
	c-1.14-1.84-3.87-2.69-5.54-1.84c-2.05,1.15-2.58,0.54-1.44-1.69c1.59-3.07,3.95-4.45,7.67-4.45c4.33,0,7.13,2,8.35,6.07
	c0.76,2.46,0.61,3.46-0.68,6.37c-3.87,8.99-17.08,7.76-22.24-2.15c-4.1-7.68-4.78-14.05-4.4-41.78c0.15-13.29,0.23-13.21,0.68,6.53
	c0.3,12.13,0.91,21.5,1.52,23.81c1.06,4.3,3.34,9.22,4.55,9.98c0.46,0.31,0.08-0.92-0.83-2.61c-2.73-5.38-3.04-8.22-3.79-32.72
	c-0.3-13.06-0.83-25.04-0.99-26.5l-0.38-2.69l0.68,2.69c0.46,1.46,1.06,8.91,1.44,16.51c0.38,7.6,1.06,14.75,1.52,15.97
	c0.46,1.15,2.5,4.3,4.55,7.07c2.05,2.69,3.95,5.61,4.25,6.53c0.68,2.07,1.9,1.92,1.9-0.23c0-3.23-1.97-8.68-4.48-12.36
	c-3.57-5.15-4.55-8.83-5.46-19.58c-0.46-5.3-1.29-11.9-1.82-14.67c-3.04-14.59-11.61-31.41-24.51-47.77
	c-5.16-6.53-7.29-8.29-2.88-2.3c3.19,4.3,11.08,15.97,8.88,13.21c-5.31-6.76-12.83-17.66-12.37-17.89c0.3-0.15,3.64-0.92,7.51-1.69
	c8.35-1.69,11.92-1,16.01,3.15c1.44,1.46,2.81,2.46,3.04,2.3c0.38-0.46-0.91-7.53-1.75-9.83c-0.38-1,0.3-1.69,2.81-3
	c5.92-3,15.33-9.52,21.18-14.67c10.32-9.14,20.95-24.73,25.43-37.32c1.14-3.3,2.35-6.68,2.73-7.68c0.3-0.92,1.21-1.92,1.9-2.15
	c4.25-1.38,11.08-5.3,14.27-8.14c4.4-3.92,8.88-10.75,10.17-15.36c0.76-2.61,1.44-3.61,3.19-4.22c2.88-1.15,4.78-5.38,3.72-8.29
	c-0.46-1.15-0.76-2.15-0.76-2.38c0-0.15,36.42-0.23,81.09-0.15c1.02-4.48,1.88-9.06,3.61-13.21c-54.75-0.02-60.1-0.21-58.15-1.23
	c1.31-0.61,3.53-2.38,5.07-3.84c2.53-2.46,3.15-2.69,9.6-3.3c6.22-0.54,11.83-2.3,11.83-3.76c0-0.31-3.3-0.61-7.3-0.61
	c-4.07-0.08-7.6-0.31-7.83-0.61c-2-2,5.99-7.83,15.05-11.06c4.22-1.46,4.53-1.69,2-1.38c-1.69,0.23-5.68,1.69-8.83,3.3
	c-7.14,3.61-7.76,3.84-5.38,1.77c2.76-2.46,9.91-5.91,15.21-7.37c10.83-3,20.04,2.69,19.12,11.83c-0.77,7.53-9.45,11.14-14.36,5.91
	c-2.46-2.69-2.92-7.91-0.84-10.37l1.54-1.92l0.08,2c0,2.61,1.31,3.76,4.3,3.76c2.53,0,3.61-0.84,4.45-3.61
	c0.38-1.31,0-2.23-1.46-3.76c-1.69-1.69-2.46-1.92-4.84-1.54c-6.14,1-9.45,7.91-6.6,13.9c3.38,7.14,11.98,7.68,17.51,1.15
	c2.76-3.3,2.84-9.22,0.08-13.21c-5.38-7.99-15.36-8.75-28.49-2.15c-3.3,1.69-6.14,3.07-6.22,3.07c-0.15,0-0.23-1.08-0.23-2.3
	c0-3.07-1.15-3.38-6.22-1.61l-4.22,1.46l-0.84-4.68c-0.54-2.53-1.92-6.22-3.07-8.14l-2.23-3.53h7.68c5.99,0,8.37-0.31,10.29-1.38
	c1.31-0.77,2.46-1.61,2.46-1.92c0-0.31-3-3.76-6.68-7.68c-7.68-8.06-7.76-7.83,3.23-6.3c11.14,1.54,10.14,1,9.75,5.84l-0.38,4.22
	l3.84,3.69c2.69,2.53,4.84,3.92,7.37,4.53c4.22,1.08,10.29,1.23,10.91,0.23c0.54-0.92-4.38-11.67-5.99-13.06c-2-1.61-1.54-2,2-1.77
	c1.77,0.08,6.3-0.08,10.14-0.38l6.91-0.61l1.92,2.15c3.76,4.22,11.67,3.38,17.2-1.77l3.15-3l-3.38-1.38l-3.38-1.46l7.6-4.22
	l7.68-4.22l1.38,1.84c1.23,1.61,1.92,1.84,4.84,1.46c2-0.23,4.15-1,4.99-1.84c1.46-1.54,1.46-1.54-1.69-3.46l-3.15-1.84l9.83-4.68
	c11.6-5.53,19.2-8.29,27.11-9.83l5.76-1.08l-4.61,0.23c-5.22,0.31-18.58,4.53-25.65,8.06c-2.53,1.31-4.84,2.38-5.07,2.38
	c-0.15,0-0.15-1.54,0.15-3.46c0.54-3.99-0.23-4.38-4.15-1.92c-2.61,1.54-3.76,4.22-3.07,7.14c0.38,1.46-0.23,2.07-4.68,4.45
	l-5.15,2.84l0.23-4.15c0.23-3.15,0-4.15-0.77-4.15c-3.38,0-7.53,6.37-5.99,9.22c1.15,2.07,1.15,2.07-3.07,4.22
	c-2.92,1.46-4.53,1.84-6.53,1.46c-2.61-0.46-2.61-0.46-1.38-2.38c0.69-1,2.38-2.3,3.84-2.92c5.22-2.23,6.3-11.29,1.92-15.67
	c-1.61-1.54-4.76-6.99-4.76-8.14c0-0.08,2.07-0.77,4.61-1.54c2.53-0.77,4.61-1.61,4.61-1.92c0-0.23-1.15-1.61-2.61-3
	c-2.15-2.07-3.46-2.69-6.6-3c-3.23-0.31-4.22-0.08-5.68,1.31c-1.69,1.61-1.84,1.61-4.76,0.38c-3.69-1.54-12.59-1.15-16.2,0.69
	l-2.38,1.31l-0.54-4.99c-0.31-2.76-0.69-4.99-0.92-4.99c-2.07,0-7.68,4.91-9.37,8.22c-1.46,2.92-1.08,7.76,0.92,9.75
	c1.61,1.61,1.69,2,0.84,4.38c-2.53,7.07-0.08,17.28,5.38,22.42c1.77,1.61,4.38,3.61,5.84,4.38l2.69,1.46l-4.45,0.08
	c-4.15,0-18.43-1.84-21.5-2.76c-1.23-0.38-1.08-0.69,1.23-2.3c3.92-2.61,5.84-6.3,7.07-13.52c1.54-8.75,1.61-8.52-1.69-8.22
	l-2.92,0.31l0.23-3.61c0.77-10.21-7.3-19.81-16.67-19.81c-3,0-3.23-0.15-2.3-1.31c1.69-2,6.91-4.07,10.29-4.07
	c2.84,0,5.61,0.54,10.37,1.84l1.92,0.54L529,10.29c-2.92-1.61-9.98-2.69-13.59-2.07c-3.69,0.69-6.6,2.38-9.6,5.61l-2.07,2.23
	l-0.54-1.92c-0.23-1.08-0.92-2-1.54-2c-1.54,0-3.38,3.15-3.38,5.91c0,1.61-0.38,2.53-1,2.53c-0.69,0-0.92-0.77-0.69-2.3
	c0.61-4.07-3.99-7.07-6.6-4.45c-1.46,1.46-1.08,5.07,0.61,6.76c0.84,0.84,1.54,1.69,1.54,1.84c0,0.46-3.99,1.84-6.83,2.3
	c-2.23,0.38-2.46,0.31-1.61-0.69c1.08-1.31,2.38-6.53,1.84-7.37c-0.54-1-4.84,0.92-6.07,2.61c-0.61,0.92-1.15,2.61-1.15,3.69
	c0,2.07,0,2.07-5.91,2.15c-3.3,0-7.22,0.38-8.68,0.84c-3.99,1.15-5.61,1-5.07-0.46c1.54-3.92,1.46-4.92-0.38-4.92
	c-2.46,0.08-5.3,1.69-6.37,3.76l-0.92,1.61l-2.61-2c-4.15-3.07-10.75-6.22-16.2-7.68c-6.6-1.77-18.05-1.77-24.11,0
	c-15.59,4.61-28.18,16.82-32.56,31.49l-1.77,5.99l-2.46-0.46c-4.61-0.92-26.96-1.38-31.56-0.61c-5.38,0.84-7.99,0.31-4.15-0.92
	c3.38-1.08,4.61-4.22,2.92-7.22c-0.92-1.69-1.69-2.07-4.07-2.07c-2.38,0-3.3,0.46-4.53,2.07c-1.31,1.77-1.46,2.46-0.69,3.99
	c0.84,1.84,0.69,1.84-3.53-0.84c-25.8-16.36-35.33-32.18-34.56-57.44c0.15-7.76,0.08-9.22-0.92-9.22c-0.84,0-1.23,1.08-1.38,3.84
	c-0.23,3.38,0.77,16.74,1.77,23.04c0.15,1.31-0.15,0.38-0.77-1.92c-0.61-2.3-1.84-11.14-2.69-19.58c-2.3-22.66-3.99-30.33-8.75-40.7
	c-2.46-5.3-8.14-14.51-8.14-13.13c0,0.38,1.23,3.76,2.76,7.6c4.61,11.52,5.68,18.28,5.99,39.7c0.38,19.89,1.15,26.57,4.61,36.56
	c5.38,15.9,15.28,28.8,29.03,37.78c6.45,4.15,6.37,4.76,0,4.76c-5.38,0-12.83,2-18.12,4.84c-9.29,4.92-17.74,15.74-19.28,24.73
	c-0.31,1.69-1.92,5.15-3.53,7.68c-1.61,2.53-4.61,8.22-6.76,12.67c-2.07,4.45-4.53,8.75-5.45,9.6c-1.31,1.23-1.54,2.15-1.38,6.07
	c0.15,4.22-1.31,16.43-2,17.2c-0.23,0.15-3.07,1.23-6.37,2.38c-16.51,5.76-28.34,18.82-32.87,36.25
	c-1.77,6.84-1.69,17.74,0.15,24.88c0.38,1.46,0.31,1.46-0.84-0.15c-3.61-4.91-17.28-12.98-25.88-15.28
	c-6.45-1.69-17.97-1.77-24.42-0.08c-27.65,7.3-48.38,40.93-44.7,72.5c2.15,17.97,10.52,33.94,25.34,48.08
	c15.67,14.98,35.25,23.73,57.52,25.88c30.95,2.92,63.36-11.75,86.7-39.32c10.91-12.83,22.5-32.33,29.49-49.53
	c1.38-3.53,2.76-6.37,3.07-6.37c0.69,0-4.07,11.75-9.22,22.66c-6.37,13.44-12.75,23.65-36.56,58.75
	c-35.63,52.38-47.61,71.42-58.44,93.08c-13.67,27.34-19.81,48.54-19.66,68.2c0.08,16.05,4.3,27.19,13.98,36.94
	c8.99,9.14,17.51,12.59,29.11,12.06C256.06,531.98,266.36,524.07,270.27,511.17z M396.83,295.83c0.08,0.84-0.15,1.31-0.38,1
	c-0.23-0.23-0.31-0.92-0.08-1.46C396.6,294.75,396.83,294.98,396.83,295.83z M392.23,287.99c1.38,2.07,3.84,12.98,3.76,16.74
	c0,3.23-0.08,3.15-0.61-1.15c-0.54-4.07-2.15-11.14-3.53-15.51C391.46,286.84,391.53,286.84,392.23,287.99z M384.47,272.1
	c1,0.92,6.99,12.75,7.07,13.75c0,0.38-0.15,0.54-0.31,0.38C390.46,285.38,383.78,271.4,384.47,272.1z M383.86,270.94
	c-0.08,0.23-0.61-0.31-1.23-1.15c-1.54-2-2.76-4.22-2.3-4.22C380.71,265.57,383.86,270.41,383.86,270.94z M378.71,263.19
	c1.23,1,1.61,1.61,1,1.61c-0.15,0-0.77-0.61-1.31-1.31C377.4,262.27,377.48,262.19,378.71,263.19z M368.73,254.74
	c1.92,1.77,2.46,2.38,1.84,2.38c-0.15,0-1.08-0.92-2.15-2.07l-1.84-2.15L368.73,254.74z M363.81,248.67
	c3.69,4.15,4.07,4.99,0.77,1.84c-1.31-1.23-2.69-2.92-3.15-3.76C361.05,245.91,362.04,246.75,363.81,248.67z M366.04,270.02
	c-2.61,2.61-6.91-0.46-5.22-3.69c0.46-0.84,0.92-1.54,1.15-1.54c0.15,0,0.77-0.23,1.38-0.46
	C365.81,263.42,368.03,268.03,366.04,270.02z M346.15,245.45c2.84,0.31,3.15,0.54,4.92,4.61c3.38,7.83,3.69,10.37,1.38,11.67
	c-2.07,1.08-3.61,1-6.68-0.46l-2.61-1.23v-14.9L346.15,245.45z M550.28,62.82c-2.23-0.84-4.68-2-5.38-2.53
	c-1.15-0.77-0.92-0.92,1.77-1.08c4.45-0.31,10.83-3.76,10.75-5.91c-0.08-1.38-8.83-5.07-11.98-5.07c-1.54,0-3.92,0.69-5.3,1.54
	l-2.53,1.54l-0.84-2.38c-2-5.68-0.38-14.21,3.07-16.74c1.23-0.92,2.76-2.76,3.46-4.15c2.07-3.99,4.92-5.61,4.92-2.84
	c0,2.23,3.46,5.22,6.6,5.84c3.15,0.61,7.22-0.08,9.22-1.54c1.38-1.08,1.31-1.23-1.54-4.22l-3.07-3.15l2.69,0.77
	c1.38,0.46,2.76,0.77,2.92,0.77c1.08,0,8.37,8.6,9.06,10.75c1.23,3.92,1.15,4.45-0.84,7.14c-2.38,3.23-2.84,5.68-1.69,8.99
	c0.84,2.3,0.77,3-0.46,4.76c-2.07,3-8.83,7.3-13.06,8.22C554.96,64.21,553.73,64.13,550.28,62.82z M490.6,16.67
	c0-1.84,0.31-2.23,1.77-2.23c1,0,2.07,0.23,2.3,0.54c1,1,0.54,4.92-0.61,5.3C492.29,20.97,490.6,19.13,490.6,16.67z M230.34,228.4
	l3,2.92l-2.15,1.23c-1.38,0.92-2.23,1.08-2.53,0.46c-0.31-0.46-0.69-2.38-0.92-4.22l-0.38-3.38L230.34,228.4z M251.69,257.43
	c2.3-1.69,5.45-8.37,5.45-11.83v-2.69l7.45,0.23c8.14,0.31,14.9-0.69,20.04-2.92c1.77-0.84,3.23-1.23,3.23-1
	c0,0.31-0.92,2.07-2,3.99c-6.68,11.52-14.98,19.97-24.04,24.5c-5.45,2.69-6.14,2.84-13.44,2.84c-7.14,0-8.06-0.15-11.9-2.3
	c-4.68-2.61-7.99-6.3-9.75-10.83c-1.08-2.92-1.08-3.46,0-6.76c0.69-1.92,1.46-5.99,1.69-8.99c0.46-4.92,0.77-5.53,3-7.3
	c3-2.3,3-2.3,5.99,0c3.46,2.53,8.6,5.07,13.59,6.68l4.22,1.31l0.23,3.46c0.31,4.07-1.77,8.75-4.91,11.21
	C248.15,258.96,249.08,259.19,251.69,257.43z M226.42,241.45c0.46-1.08,0.54-0.23,0.23,2.23c-0.23,2.15-0.77,4.53-1.15,5.38
	C224.65,251.05,225.58,243.68,226.42,241.45z M466.26,153.98c-2.84,5.76-8.14,11.06-13.98,13.98c-4.68,2.38-4.68,2.38-4.3,0.69
	c0.84-3.84,1.92-11.9,1.92-14.59c0-2.61,0.23-2.92,1.92-2.92c2.84,0,8.83-2.23,12.29-4.53
	C469.71,142.85,470.48,145.38,466.26,153.98z M475.86,140c-0.23,2-0.54,2.3-2.69,2.53c-2.92,0.31-3.15-0.46-1.23-3.76
	C474.02,135.24,476.24,135.93,475.86,140z M478.32,121.04c1.31,0.15,2.3,0.46,2.3,0.61c0,0.15-1,0.31-2.3,0.31
	c-1.23,0-2.3-0.31-2.3-0.61C476.01,120.96,477.09,120.81,478.32,121.04z M462.88,128.49c-1.15,4.15-5.68,8.37-10.29,9.52
	c-11.52,2.92-21.43-8.75-16.9-19.66c2.38-5.68,7.07-8.68,13.67-8.68c6.6,0,11.21,3.61,13.82,10.75
	C463.88,122.34,463.8,125.26,462.88,128.49z M489.61,70.96c1.38,1.84,0.92,2-2.53,0.84l-2.92-1.08l2.23-0.54
	C488.07,69.73,488.84,69.97,489.61,70.96z M489.07,65.9c0,0.46-0.77,1.08-1.69,1.46c-4.53,1.69-5.38,1.61-2.23-0.23
	C488.91,64.9,489.07,64.82,489.07,65.9z M513.34,58.91c1.23,1.61,0.84,1.92-1.69,1.31c-1.92-0.54-1.92-0.61-0.61-1.54
	C512.26,57.75,512.57,57.83,513.34,58.91z M464.26,27.42c2.46-1,5.61-0.77,5.61,0.38c0,2.61,5.91,4.45,9.6,3.07
	c1.08-0.46,1-0.69-0.46-2.3l-1.69-1.84h3c1.61-0.08,4.45-0.38,6.22-0.69c2.46-0.46,3.3-0.38,3.61,0.46c0.23,0.54,1.23,1.38,2.3,1.84
	c1.31,0.61,1.92,1.69,2.23,3.84c0.23,1.61,1.15,4.15,2.07,5.68c5.91,9.52,21.5,5.45,21.5-5.61c0-2.92-2.3-7.07-3.92-7.07
	c-0.38,0,0,0.69,0.84,1.54c3.46,3.46,2.61,10.14-1.77,13.21c-3.61,2.61-10.37,2.53-13.21-0.15c-2.69-2.53-4.22-5.53-4.22-8.37
	c0-1.84,0.54-2.61,2.3-3.53c2.76-1.38,2.84-2.15,0.61-3.61c-1.38-0.92-1.46-1.23-0.54-2c0.61-0.46,2.38-2,3.99-3.3
	c5.45-4.53,13.67-3.69,18.89,1.92c1.92,2,4.61,8.83,4.68,11.67c0,0.92-0.23,2.69-0.46,3.99c-0.31,1.38-1.15,2.61-2.23,3.07
	c-5.15,2.38-11.06,10.06-11.14,14.51c0,2.92-5.45,5.45-12.36,5.76c-4.53,0.15-5.76,0-5.53-0.69c0.54-1.46-0.92-1.23-2.15,0.31
	c-0.92,1-5.22,3.3-6.3,3.3c-0.15,0,0.46-1.61,1.46-3.61c1.61-3.07,1.84-4.68,1.84-11.9c0-9.45-0.08-9.52-5.84-6.68
	c-4.15,2-8.99,6.68-11.06,10.6c-2.3,4.53-2.15,10.75,0.38,13.75c1.08,1.31,1.92,2.46,1.92,2.69c0,0.23-1.15,0.61-2.46,0.92
	c-1.38,0.31-3.15,0.69-3.92,0.92c-1.31,0.31-1.38,0-0.84-4.22c0.54-5.22-0.69-13.98-2.84-19.74c-0.84-2.07-1.46-3.84-1.46-3.84
	c0-0.08,0.77-0.08,1.77-0.15c2.84-0.23,5.15-3.69,5.15-7.6c0-3.15-0.15-3.46-1.54-3c-0.92,0.31-1.54,0.15-1.54-0.38
	c0-0.46-0.92-1.23-2-1.69C463.03,28.03,462.96,27.88,464.26,27.42z M455.43,30.57c-0.69-1.08-0.61-1.46,0.31-1.84
	c2.69-1,3.3-0.31,1.61,2C456.43,31.87,456.28,31.87,455.43,30.57z M459.42,30.18c1.08-1.46,1.15-1.46,3.92-0.15l2.76,1.31
	l-1.92,2.38c-1.08,1.31-2,3.3-2,4.38c0,2-0.08,1.92-1.92-1C458.12,33.56,457.96,32.18,459.42,30.18z M324.87,52.07
	c-11.83-6.68-21.43-15.74-27.42-25.88c-1.92-3.3-3.46-6.3-3.46-6.76c0-0.38,1.31,1.46,2.84,4.22c3.76,6.83,15.44,18.12,25.73,24.96
	C331.1,54.22,332.48,56.3,324.87,52.07z M418.18,87.17c-19.51-1.77-29.8-23.5-18.89-39.93c4.38-6.6,12.06-10.6,20.66-10.75
	c6.99-0.08,12.21,1.84,17.2,6.45c7.83,7.14,10.21,15.82,7.3,26.96C441.84,80.1,429.55,88.17,418.18,87.17z M486.3,95.23
	c-2.92-2.61-16.67-11.44-19.35-12.44l-3.3-1.23l2.3-3.15c2-2.76,2.84-3.23,7.68-4.45c4.61-1.15,5.99-1.15,9.45-0.38
	c12.83,3.07,20.04,10.67,21.27,22.66c0.08,0.46-1.23,1.31-2.76,1.92c-1.61,0.61-3.15,1.23-3.46,1.38c-0.23,0.15-0.38-1.23-0.15-3.07
	l0.23-3.3l-0.77,3.76c-0.46,2.46-1.54,4.53-3.15,6.07c-2.76,2.84-5.15,7.76-5.22,10.67c0,2.92-3.23,5.22-7.22,5.22
	c-5.15,0-6.37-0.61-6.91-3.3c-0.23-1.38-1.46-3.99-2.76-5.91c-1.23-1.84-2-3.61-1.69-3.92c0.31-0.31,1.92-0.92,3.61-1.46
	C480.31,102.3,487.99,96.61,486.3,95.23z M299.92,152.6l0.38-7.45c1.08-21.35,15.13-39.78,35.94-47.15
	c4.38-1.54,6.45-1.77,16.9-1.77c10.98,0,12.29,0.15,17.51,2.07c16.97,6.22,29.49,19.89,33.94,36.86c1.77,6.91,2,18.97,0.38,25.8
	c-4.3,18.28-17.66,32.49-36.09,38.71c-4.61,1.54-6.91,1.77-15.74,1.77c-11.37,0-16.67-1.23-25.42-5.84
	c-7.6-4.07-9.68-6.3-10.29-10.83c-1.31-9.37-6.53-20.04-13.82-28.11L299.92,152.6z M241.32,203.9c-1.92-4.15-2.23-5.68-2.23-11.67
	c0-6.3,0.23-7.45,2.53-12.06c4.07-8.29,11.14-13.52,20.5-15.28c11.6-2.15,24.42,4.45,29.26,15.05c4.07,8.83,3.99,16.05-0.15,24.73
	c-3,6.22-6.68,9.91-13.36,13.06c-3.61,1.77-5.22,2.07-11.14,2.15c-5.91,0-7.53-0.31-11.29-2.07
	C249.31,214.96,244.01,209.74,241.32,203.9z M228.49,321.32c-0.23,0.23-0.92,0.31-1.46,0.08c-0.61-0.23-0.38-0.46,0.46-0.46
	C228.34,320.86,228.8,321.09,228.49,321.32z M295.54,256.43c-9.75,21.96-35.17,45.31-57.14,52.53c-11.67,3.84-26.65,4.76-39.24,2.38
	c-19.2-3.69-37.32-15.28-44.39-28.49c-2.23-4.22-1.46,0.38,0.92,5.38c9.22,19.51,34.87,33.18,62.59,33.48l7.76,0.08l-5.38,1.15
	c-7.37,1.54-24.04,0.92-31.87-1.15c-19.12-5.07-36.25-15.97-46.77-29.87c-5.22-6.83-10.44-17.59-12.36-25.11
	c-5.53-22.12,3.61-50.3,20.97-64.28c14.75-11.9,32.87-13.82,50.15-5.3c6.14,3.07,14.05,9.45,17.2,13.82l1.54,2.15l-3.92,2.46
	c-4.99,3.07-4.38,3.84,1.15,1.31l4.22-1.92l2.23,5.45c1.31,3.07,2.69,7.83,3.07,10.67c0.69,4.61,0.61,5.38-0.84,8.45
	c-1.23,2.38-1.77,5.3-2.07,10.67c-0.38,7.07-0.54,7.6-3.38,11.75c-3.76,5.53-7.91,9.06-14.28,12.44c-2.76,1.46-4.15,2.46-3.07,2.15
	c6.3-1.61,17.66-10.91,19.89-16.28c1.23-2.92,2.07-3.15,2.69-0.61c0.77,3.07,6.99,9.22,11.75,11.6c4.07,2.07,5.15,2.3,12.13,2.23
	c6.14,0,8.52-0.38,11.83-1.69c11.83-4.92,21.66-14.67,30.64-30.41c2.15-3.69,5.07-7.6,6.68-8.91c2.69-2.07,2.92-2.15,4.61-1.08
	l1.84,1.23l-2.69,7.76C300.45,244.76,297.61,251.9,295.54,256.43z"/>
</svg>
